<svg width="24" height="24" viewBox="0 0 24 24" fill="none" xmlns="http://www.w3.org/2000/svg">
<g clip-path="url(#clip0_1774_11802)">
<path d="M7.81214 0H16.188C16.4664 0 16.68 1.26286e-07 16.8672 0.0179999C18.1968 0.148798 19.2852 0.947987 19.7472 2.02437H4.25299C4.71499 0.947987 5.80337 0.148798 7.13295 0.0179999C7.31775 1.26286e-07 7.53135 0 7.81214 0ZM5.17218 3.26755C3.5042 3.26755 2.13622 4.27554 1.68023 5.61232L1.65143 5.69632C2.12902 5.55232 2.62701 5.45633 3.12981 5.39273C4.42579 5.22593 6.06497 5.22593 7.96814 5.22593H16.2384C18.1416 5.22593 19.7796 5.22593 21.0768 5.39273C21.5808 5.45752 22.0775 5.55112 22.5551 5.69632L22.5275 5.61232C22.0715 4.27554 20.7036 3.26755 19.0344 3.26755H5.17218Z" fill="#D9D9D9"/>
<path fill-rule="evenodd" clip-rule="evenodd" d="M8.00668 6.65039H15.9938C20.0425 6.65039 22.0681 6.65039 23.2057 7.83477C24.3433 9.01916 24.0745 10.8479 23.5393 14.5067L23.0329 17.977C22.6129 20.8462 22.4029 22.2814 21.3265 23.1406C20.2501 23.9998 18.6625 23.9998 15.4862 23.9998H8.51428C5.33912 23.9998 3.75034 23.9998 2.67396 23.1406C1.59757 22.2814 1.38758 20.8462 0.967582 17.977L0.461189 14.5079C-0.0752039 10.8479 -0.3428 9.01916 0.794784 7.83477C1.93237 6.65039 3.95794 6.65039 8.00668 6.65039ZM7.2003 19.1998C7.2003 18.703 7.64789 18.2998 8.19988 18.2998H15.8006C16.3526 18.2998 16.8002 18.703 16.8002 19.1998C16.8002 19.6966 16.3526 20.0998 15.8006 20.0998H8.19988C7.64789 20.0998 7.2003 19.6966 7.2003 19.1998Z" fill="#D9D9D9"/>
</g>
<defs>
<clipPath id="clip0_1774_11802">
<rect width="24" height="24" fill="white"/>
</clipPath>
</defs>
</svg>
