<svg width="128" height="128" viewBox="0 0 128 128" fill="none" xmlns="http://www.w3.org/2000/svg">
<rect x="37.0332" y="43.0488" width="57.1528" height="69.2232" fill="white"/>
<path d="M56.9863 49.9594C56.8554 49.3632 56.6809 48.6506 55.9974 48.5488C55.3575 48.4615 54.9067 49.0287 54.514 49.5086C53.3215 50.992 52.5944 52.7226 51.9545 54.4968C49.6568 60.7501 48.9878 67.2798 48.5661 73.8531C48.6243 74.1294 48.5225 74.4639 48.8424 74.6384C52.3472 69.4176 55.2121 63.9059 56.55 57.7107C57.0881 55.1512 57.5971 52.5917 56.9863 49.9594ZM56.9863 49.9594C56.8554 49.3632 56.6809 48.6506 55.9974 48.5488C55.3575 48.4615 54.9067 49.0287 54.514 49.5086C53.3215 50.992 52.5944 52.7226 51.9545 54.4968C49.6568 60.7501 48.9878 67.2798 48.5661 73.8531C48.6243 74.1294 48.5225 74.4639 48.8424 74.6384C52.3472 69.4176 55.2121 63.9059 56.55 57.7107C57.0881 55.1512 57.5971 52.5917 56.9863 49.9594ZM56.9863 49.9594C56.8554 49.3632 56.6809 48.6506 55.9974 48.5488C55.3575 48.4615 54.9067 49.0287 54.514 49.5086C53.3215 50.992 52.5944 52.7226 51.9545 54.4968C49.6568 60.7501 48.9878 67.2798 48.5661 73.8531C48.6243 74.1294 48.5225 74.4639 48.8424 74.6384C52.3472 69.4176 55.2121 63.9059 56.55 57.7107C57.0881 55.1512 57.5971 52.5917 56.9863 49.9594ZM78.3931 72.7042C78.3931 72.7188 78.3931 72.7188 78.4077 72.7333C78.3931 72.7333 78.3931 72.7188 78.3931 72.7042ZM77.4188 51.3119C77.1716 51.1956 76.8516 51.2974 76.6335 51.4283C76.5171 51.501 76.4008 51.5737 76.3426 51.69C76.3135 51.7482 76.2845 51.8645 76.3717 51.9082C77.2297 52.3299 77.826 53.1734 77.9278 54.1332C77.9423 54.2205 78.1168 54.2495 78.175 54.2495C78.3204 54.2495 78.4804 54.2059 78.6113 54.1623C78.8149 54.075 79.1057 53.9296 79.0912 53.6678C78.9603 52.6644 78.3059 51.7482 77.4188 51.3119ZM80.6036 65.7092C80.6036 65.651 80.5891 65.5928 80.5455 65.5638C80.5164 65.5056 80.4727 65.4765 80.4146 65.4474C80.3564 65.4183 80.2837 65.4038 80.2255 65.4038C80.1528 65.3892 80.0801 65.4038 80.0074 65.4183C79.9492 65.4329 79.9056 65.4474 79.8474 65.462C79.7456 65.5056 79.6584 65.5638 79.5711 65.6365C79.542 65.6656 79.5129 65.7092 79.4838 65.7383C79.4402 65.811 79.4111 65.8837 79.3966 65.9564L79.4548 66.3636C79.4548 66.4218 79.4693 66.4799 79.5129 66.509C79.542 66.5672 79.5856 66.5963 79.6438 66.6254C79.702 66.6545 79.7747 66.669 79.8329 66.669C79.9056 66.6835 79.9783 66.669 80.051 66.6545C80.1092 66.6399 80.1528 66.6254 80.211 66.6108C80.3128 66.5672 80.4 66.509 80.4873 66.4363C80.5164 66.4072 80.5455 66.3636 80.5745 66.3345C80.6182 66.2618 80.6473 66.1891 80.6618 66.1018L80.6036 65.7092ZM79.9492 83.1459L79.9347 83.1023L79.6438 81.1681L79.2657 78.7104L77.7824 68.9958L77.7678 68.9377C77.6515 68.2396 77.5351 67.5416 77.4188 66.829C77.2879 66.0437 77.1425 65.2584 77.0116 64.4876C76.8952 63.8332 75.7027 64.1531 75.8045 64.7203C77.5642 74.7111 79.033 84.7456 80.1964 94.8237C80.5309 97.674 80.8363 100.539 81.1272 103.389C81.1999 104.044 82.3924 103.738 82.3342 103.157C81.6653 96.4815 80.8654 89.8064 79.9492 83.1459ZM82.0724 76.5144C81.5489 74.1439 80.9672 71.788 80.3419 69.4321C80.2401 69.054 79.0767 69.4757 79.193 69.912C81.3889 78.1432 82.9741 86.5489 83.9194 95.0127C84.1811 97.3977 84.3993 99.7827 84.5592 102.168C84.5883 102.633 85.7663 102.24 85.7372 101.862C85.141 93.3403 83.9194 84.8619 82.0724 76.5144ZM82.0724 76.5144C81.5489 74.1439 80.9672 71.788 80.3419 69.4321C80.2401 69.054 79.0767 69.4757 79.193 69.912C81.3889 78.1432 82.9741 86.5489 83.9194 95.0127C84.1811 97.3977 84.3993 99.7827 84.5592 102.168C84.5883 102.633 85.7663 102.24 85.7372 101.862C85.141 93.3403 83.9194 84.8619 82.0724 76.5144ZM79.9492 83.1459L79.9347 83.1023L79.6438 81.1681L79.2657 78.7104L77.7824 68.9958L77.7678 68.9377C77.6515 68.2396 77.5351 67.5416 77.4188 66.829C77.2879 66.0437 77.1425 65.2584 77.0116 64.4876C76.8952 63.8332 75.7027 64.1531 75.8045 64.7203C77.5642 74.7111 79.033 84.7456 80.1964 94.8237C80.5309 97.674 80.8363 100.539 81.1272 103.389C81.1999 104.044 82.3924 103.738 82.3342 103.157C81.6653 96.4815 80.8654 89.8064 79.9492 83.1459ZM80.6036 65.7092C80.6036 65.651 80.5891 65.5928 80.5455 65.5638C80.5164 65.5056 80.4727 65.4765 80.4146 65.4474C80.3564 65.4183 80.2837 65.4038 80.2255 65.4038C80.1528 65.3892 80.0801 65.4038 80.0074 65.4183C79.9492 65.4329 79.9056 65.4474 79.8474 65.462C79.7456 65.5056 79.6584 65.5638 79.5711 65.6365C79.542 65.6656 79.5129 65.7092 79.4838 65.7383C79.4402 65.811 79.4111 65.8837 79.3966 65.9564L79.4548 66.3636C79.4548 66.4218 79.4693 66.4799 79.5129 66.509C79.542 66.5672 79.5856 66.5963 79.6438 66.6254C79.702 66.6545 79.7747 66.669 79.8329 66.669C79.9056 66.6835 79.9783 66.669 80.051 66.6545C80.1092 66.6399 80.1528 66.6254 80.211 66.6108C80.3128 66.5672 80.4 66.509 80.4873 66.4363C80.5164 66.4072 80.5455 66.3636 80.5745 66.3345C80.6182 66.2618 80.6473 66.1891 80.6618 66.1018L80.6036 65.7092ZM78.3931 72.7042C78.3931 72.7188 78.3931 72.7188 78.4077 72.7333C78.3931 72.7333 78.3931 72.7188 78.3931 72.7042ZM77.4188 51.3119C77.1716 51.1956 76.8516 51.2974 76.6335 51.4283C76.5171 51.501 76.4008 51.5737 76.3426 51.69C76.3135 51.7482 76.2845 51.8645 76.3717 51.9082C77.2297 52.3299 77.826 53.1734 77.9278 54.1332C77.9423 54.2205 78.1168 54.2495 78.175 54.2495C78.3204 54.2495 78.4804 54.2059 78.6113 54.1623C78.8149 54.075 79.1057 53.9296 79.0912 53.6678C78.9603 52.6644 78.3059 51.7482 77.4188 51.3119ZM56.9863 49.9594C56.8554 49.3632 56.6809 48.6506 55.9974 48.5488C55.3575 48.4615 54.9067 49.0287 54.514 49.5086C53.3215 50.992 52.5944 52.7226 51.9545 54.4968C49.6568 60.7501 48.9878 67.2798 48.5661 73.8531C48.6243 74.1294 48.5225 74.4639 48.8424 74.6384C52.3472 69.4176 55.2121 63.9059 56.55 57.7107C57.0881 55.1512 57.5971 52.5917 56.9863 49.9594ZM56.9863 49.9594C56.8554 49.3632 56.6809 48.6506 55.9974 48.5488C55.3575 48.4615 54.9067 49.0287 54.514 49.5086C53.3215 50.992 52.5944 52.7226 51.9545 54.4968C49.6568 60.7501 48.9878 67.2798 48.5661 73.8531C48.6243 74.1294 48.5225 74.4639 48.8424 74.6384C52.3472 69.4176 55.2121 63.9059 56.55 57.7107C57.0881 55.1512 57.5971 52.5917 56.9863 49.9594ZM78.3931 72.7042C78.3931 72.7188 78.3931 72.7188 78.4077 72.7333C78.3931 72.7333 78.3931 72.7188 78.3931 72.7042ZM77.4188 51.3119C77.1716 51.1956 76.8516 51.2974 76.6335 51.4283C76.5171 51.501 76.4008 51.5737 76.3426 51.69C76.3135 51.7482 76.2845 51.8645 76.3717 51.9082C77.2297 52.3299 77.826 53.1734 77.9278 54.1332C77.9423 54.2205 78.1168 54.2495 78.175 54.2495C78.3204 54.2495 78.4804 54.2059 78.6113 54.1623C78.8149 54.075 79.1057 53.9296 79.0912 53.6678C78.9603 52.6644 78.3059 51.7482 77.4188 51.3119ZM80.6036 65.7092C80.6036 65.651 80.5891 65.5928 80.5455 65.5638C80.5164 65.5056 80.4727 65.4765 80.4146 65.4474C80.3564 65.4183 80.2837 65.4038 80.2255 65.4038C80.1528 65.3892 80.0801 65.4038 80.0074 65.4183C79.9492 65.4329 79.9056 65.4474 79.8474 65.462C79.7456 65.5056 79.6584 65.5638 79.5711 65.6365C79.542 65.6656 79.5129 65.7092 79.4838 65.7383C79.4402 65.811 79.4111 65.8837 79.3966 65.9564L79.4548 66.3636C79.4548 66.4218 79.4693 66.4799 79.5129 66.509C79.542 66.5672 79.5856 66.5963 79.6438 66.6254C79.702 66.6545 79.7747 66.669 79.8329 66.669C79.9056 66.6835 79.9783 66.669 80.051 66.6545C80.1092 66.6399 80.1528 66.6254 80.211 66.6108C80.3128 66.5672 80.4 66.509 80.4873 66.4363C80.5164 66.4072 80.5455 66.3636 80.5745 66.3345C80.6182 66.2618 80.6473 66.1891 80.6618 66.1018L80.6036 65.7092ZM79.9492 83.1459L79.9347 83.1023L79.6438 81.1681L79.2657 78.7104L77.7824 68.9958L77.7678 68.9377C77.6515 68.2396 77.5351 67.5416 77.4188 66.829C77.2879 66.0437 77.1425 65.2584 77.0116 64.4876C76.8952 63.8332 75.7027 64.1531 75.8045 64.7203C77.5642 74.7111 79.033 84.7456 80.1964 94.8237C80.5309 97.674 80.8363 100.539 81.1272 103.389C81.1999 104.044 82.3924 103.738 82.3342 103.157C81.6653 96.4815 80.8654 89.8064 79.9492 83.1459ZM82.0724 76.5144C81.5489 74.1439 80.9672 71.788 80.3419 69.4321C80.2401 69.054 79.0767 69.4757 79.193 69.912C81.3889 78.1432 82.9741 86.5489 83.9194 95.0127C84.1811 97.3977 84.3993 99.7827 84.5592 102.168C84.5883 102.633 85.7663 102.24 85.7372 101.862C85.141 93.3403 83.9194 84.8619 82.0724 76.5144ZM82.0724 76.5144C81.5489 74.1439 80.9672 71.788 80.3419 69.4321C80.2401 69.054 79.0767 69.4757 79.193 69.912C81.3889 78.1432 82.9741 86.5489 83.9194 95.0127C84.1811 97.3977 84.3993 99.7827 84.5592 102.168C84.5883 102.633 85.7663 102.24 85.7372 101.862C85.141 93.3403 83.9194 84.8619 82.0724 76.5144ZM79.9492 83.1459L79.9347 83.1023L79.6438 81.1681L79.2657 78.7104L77.7824 68.9958L77.7678 68.9377C77.6515 68.2396 77.5351 67.5416 77.4188 66.829C77.2879 66.0437 77.1425 65.2584 77.0116 64.4876C76.8952 63.8332 75.7027 64.1531 75.8045 64.7203C77.5642 74.7111 79.033 84.7456 80.1964 94.8237C80.5309 97.674 80.8363 100.539 81.1272 103.389C81.1999 104.044 82.3924 103.738 82.3342 103.157C81.6653 96.4815 80.8654 89.8064 79.9492 83.1459ZM80.6036 65.7092C80.6036 65.651 80.5891 65.5928 80.5455 65.5638C80.5164 65.5056 80.4727 65.4765 80.4146 65.4474C80.3564 65.4183 80.2837 65.4038 80.2255 65.4038C80.1528 65.3892 80.0801 65.4038 80.0074 65.4183C79.9492 65.4329 79.9056 65.4474 79.8474 65.462C79.7456 65.5056 79.6584 65.5638 79.5711 65.6365C79.542 65.6656 79.5129 65.7092 79.4838 65.7383C79.4402 65.811 79.4111 65.8837 79.3966 65.9564L79.4548 66.3636C79.4548 66.4218 79.4693 66.4799 79.5129 66.509C79.542 66.5672 79.5856 66.5963 79.6438 66.6254C79.702 66.6545 79.7747 66.669 79.8329 66.669C79.9056 66.6835 79.9783 66.669 80.051 66.6545C80.1092 66.6399 80.1528 66.6254 80.211 66.6108C80.3128 66.5672 80.4 66.509 80.4873 66.4363C80.5164 66.4072 80.5455 66.3636 80.5745 66.3345C80.6182 66.2618 80.6473 66.1891 80.6618 66.1018L80.6036 65.7092ZM78.3931 72.7042C78.3931 72.7188 78.3931 72.7188 78.4077 72.7333C78.3931 72.7333 78.3931 72.7188 78.3931 72.7042ZM77.4188 51.3119C77.1716 51.1956 76.8516 51.2974 76.6335 51.4283C76.5171 51.501 76.4008 51.5737 76.3426 51.69C76.3135 51.7482 76.2845 51.8645 76.3717 51.9082C77.2297 52.3299 77.826 53.1734 77.9278 54.1332C77.9423 54.2205 78.1168 54.2495 78.175 54.2495C78.3204 54.2495 78.4804 54.2059 78.6113 54.1623C78.8149 54.075 79.1057 53.9296 79.0912 53.6678C78.9603 52.6644 78.3059 51.7482 77.4188 51.3119ZM56.9863 49.9594C56.8554 49.3632 56.6809 48.6506 55.9974 48.5488C55.3575 48.4615 54.9067 49.0287 54.514 49.5086C53.3215 50.992 52.5944 52.7226 51.9545 54.4968C49.6568 60.7501 48.9878 67.2798 48.5661 73.8531C48.6243 74.1294 48.5225 74.4639 48.8424 74.6384C52.3472 69.4176 55.2121 63.9059 56.55 57.7107C57.0881 55.1512 57.5971 52.5917 56.9863 49.9594ZM56.9863 49.9594C56.8554 49.3632 56.6809 48.6506 55.9974 48.5488C55.3575 48.4615 54.9067 49.0287 54.514 49.5086C53.3215 50.992 52.5944 52.7226 51.9545 54.4968C49.6568 60.7501 48.9878 67.2798 48.5661 73.8531C48.6243 74.1294 48.5225 74.4639 48.8424 74.6384C52.3472 69.4176 55.2121 63.9059 56.55 57.7107C57.0881 55.1512 57.5971 52.5917 56.9863 49.9594ZM78.3931 72.7042C78.3931 72.7188 78.3931 72.7188 78.4077 72.7333C78.3931 72.7333 78.3931 72.7188 78.3931 72.7042ZM77.4188 51.3119C77.1716 51.1956 76.8516 51.2974 76.6335 51.4283C76.5171 51.501 76.4008 51.5737 76.3426 51.69C76.3135 51.7482 76.2845 51.8645 76.3717 51.9082C77.2297 52.3299 77.826 53.1734 77.9278 54.1332C77.9423 54.2205 78.1168 54.2495 78.175 54.2495C78.3204 54.2495 78.4804 54.2059 78.6113 54.1623C78.8149 54.075 79.1057 53.9296 79.0912 53.6678C78.9603 52.6644 78.3059 51.7482 77.4188 51.3119ZM80.6036 65.7092C80.6036 65.651 80.5891 65.5928 80.5455 65.5638C80.5164 65.5056 80.4727 65.4765 80.4146 65.4474C80.3564 65.4183 80.2837 65.4038 80.2255 65.4038C80.1528 65.3892 80.0801 65.4038 80.0074 65.4183C79.9492 65.4329 79.9056 65.4474 79.8474 65.462C79.7456 65.5056 79.6584 65.5638 79.5711 65.6365C79.542 65.6656 79.5129 65.7092 79.4838 65.7383C79.4402 65.811 79.4111 65.8837 79.3966 65.9564L79.4548 66.3636C79.4548 66.4218 79.4693 66.4799 79.5129 66.509C79.542 66.5672 79.5856 66.5963 79.6438 66.6254C79.702 66.6545 79.7747 66.669 79.8329 66.669C79.9056 66.6835 79.9783 66.669 80.051 66.6545C80.1092 66.6399 80.1528 66.6254 80.211 66.6108C80.3128 66.5672 80.4 66.509 80.4873 66.4363C80.5164 66.4072 80.5455 66.3636 80.5745 66.3345C80.6182 66.2618 80.6473 66.1891 80.6618 66.1018L80.6036 65.7092ZM79.9492 83.1459L79.9347 83.1023L79.6438 81.1681L79.2657 78.7104L77.7824 68.9958L77.7678 68.9377C77.6515 68.2396 77.5351 67.5416 77.4188 66.829C77.2879 66.0437 77.1425 65.2584 77.0116 64.4876C76.8952 63.8332 75.7027 64.1531 75.8045 64.7203C77.5642 74.7111 79.033 84.7456 80.1964 94.8237C80.5309 97.674 80.8363 100.539 81.1272 103.389C81.1999 104.044 82.3924 103.738 82.3342 103.157C81.6653 96.4815 80.8654 89.8064 79.9492 83.1459ZM82.0724 76.5144C81.5489 74.1439 80.9672 71.788 80.3419 69.4321C80.2401 69.054 79.0767 69.4757 79.193 69.912C81.3889 78.1432 82.9741 86.5489 83.9194 95.0127C84.1811 97.3977 84.3993 99.7827 84.5592 102.168C84.5883 102.633 85.7663 102.24 85.7372 101.862C85.141 93.3403 83.9194 84.8619 82.0724 76.5144ZM82.0724 76.5144C81.5489 74.1439 80.9672 71.788 80.3419 69.4321C80.2401 69.054 79.0767 69.4757 79.193 69.912C81.3889 78.1432 82.9741 86.5489 83.9194 95.0127C84.1811 97.3977 84.3993 99.7827 84.5592 102.168C84.5883 102.633 85.7663 102.24 85.7372 101.862C85.141 93.3403 83.9194 84.8619 82.0724 76.5144ZM79.9492 83.1459L79.9347 83.1023L79.6438 81.1681L79.2657 78.7104L77.7824 68.9958L77.7678 68.9377C77.6515 68.2396 77.5351 67.5416 77.4188 66.829C77.2879 66.0437 77.1425 65.2584 77.0116 64.4876C76.8952 63.8332 75.7027 64.1531 75.8045 64.7203C77.5642 74.7111 79.033 84.7456 80.1964 94.8237C80.5309 97.674 80.8363 100.539 81.1272 103.389C81.1999 104.044 82.3924 103.738 82.3342 103.157C81.6653 96.4815 80.8654 89.8064 79.9492 83.1459ZM80.6036 65.7092C80.6036 65.651 80.5891 65.5928 80.5455 65.5638C80.5164 65.5056 80.4727 65.4765 80.4146 65.4474C80.3564 65.4183 80.2837 65.4038 80.2255 65.4038C80.1528 65.3892 80.0801 65.4038 80.0074 65.4183C79.9492 65.4329 79.9056 65.4474 79.8474 65.462C79.7456 65.5056 79.6584 65.5638 79.5711 65.6365C79.542 65.6656 79.5129 65.7092 79.4838 65.7383C79.4402 65.811 79.4111 65.8837 79.3966 65.9564L79.4548 66.3636C79.4548 66.4218 79.4693 66.4799 79.5129 66.509C79.542 66.5672 79.5856 66.5963 79.6438 66.6254C79.702 66.6545 79.7747 66.669 79.8329 66.669C79.9056 66.6835 79.9783 66.669 80.051 66.6545C80.1092 66.6399 80.1528 66.6254 80.211 66.6108C80.3128 66.5672 80.4 66.509 80.4873 66.4363C80.5164 66.4072 80.5455 66.3636 80.5745 66.3345C80.6182 66.2618 80.6473 66.1891 80.6618 66.1018L80.6036 65.7092ZM78.3931 72.7042C78.3931 72.7188 78.3931 72.7188 78.4077 72.7333C78.3931 72.7333 78.3931 72.7188 78.3931 72.7042ZM77.4188 51.3119C77.1716 51.1956 76.8516 51.2974 76.6335 51.4283C76.5171 51.501 76.4008 51.5737 76.3426 51.69C76.3135 51.7482 76.2845 51.8645 76.3717 51.9082C77.2297 52.3299 77.826 53.1734 77.9278 54.1332C77.9423 54.2205 78.1168 54.2495 78.175 54.2495C78.3204 54.2495 78.4804 54.2059 78.6113 54.1623C78.8149 54.075 79.1057 53.9296 79.0912 53.6678C78.9603 52.6644 78.3059 51.7482 77.4188 51.3119ZM56.9863 49.9594C56.8554 49.3632 56.6809 48.6506 55.9974 48.5488C55.3575 48.4615 54.9067 49.0287 54.514 49.5086C53.3215 50.992 52.5944 52.7226 51.9545 54.4968C49.6568 60.7501 48.9878 67.2798 48.5661 73.8531C48.6243 74.1294 48.5225 74.4639 48.8424 74.6384C52.3472 69.4176 55.2121 63.9059 56.55 57.7107C57.0881 55.1512 57.5971 52.5917 56.9863 49.9594ZM56.9863 49.9594C56.8554 49.3632 56.6809 48.6506 55.9974 48.5488C55.3575 48.4615 54.9067 49.0287 54.514 49.5086C53.3215 50.992 52.5944 52.7226 51.9545 54.4968C49.6568 60.7501 48.9878 67.2798 48.5661 73.8531C48.6243 74.1294 48.5225 74.4639 48.8424 74.6384C52.3472 69.4176 55.2121 63.9059 56.55 57.7107C57.0881 55.1512 57.5971 52.5917 56.9863 49.9594ZM78.3931 72.7042C78.3931 72.7188 78.3931 72.7188 78.4077 72.7333C78.3931 72.7333 78.3931 72.7188 78.3931 72.7042ZM77.4188 51.3119C77.1716 51.1956 76.8516 51.2974 76.6335 51.4283C76.5171 51.501 76.4008 51.5737 76.3426 51.69C76.3135 51.7482 76.2845 51.8645 76.3717 51.9082C77.2297 52.3299 77.826 53.1734 77.9278 54.1332C77.9423 54.2205 78.1168 54.2495 78.175 54.2495C78.3204 54.2495 78.4804 54.2059 78.6113 54.1623C78.8149 54.075 79.1057 53.9296 79.0912 53.6678C78.9603 52.6644 78.3059 51.7482 77.4188 51.3119ZM80.6036 65.7092C80.6036 65.651 80.5891 65.5928 80.5455 65.5638C80.5164 65.5056 80.4727 65.4765 80.4146 65.4474C80.3564 65.4183 80.2837 65.4038 80.2255 65.4038C80.1528 65.3892 80.0801 65.4038 80.0074 65.4183C79.9492 65.4329 79.9056 65.4474 79.8474 65.462C79.7456 65.5056 79.6584 65.5638 79.5711 65.6365C79.542 65.6656 79.5129 65.7092 79.4838 65.7383C79.4402 65.811 79.4111 65.8837 79.3966 65.9564L79.4548 66.3636C79.4548 66.4218 79.4693 66.4799 79.5129 66.509C79.542 66.5672 79.5856 66.5963 79.6438 66.6254C79.702 66.6545 79.7747 66.669 79.8329 66.669C79.9056 66.6835 79.9783 66.669 80.051 66.6545C80.1092 66.6399 80.1528 66.6254 80.211 66.6108C80.3128 66.5672 80.4 66.509 80.4873 66.4363C80.5164 66.4072 80.5455 66.3636 80.5745 66.3345C80.6182 66.2618 80.6473 66.1891 80.6618 66.1018L80.6036 65.7092ZM79.9492 83.1459L79.9347 83.1023L79.6438 81.1681L79.2657 78.7104L77.7824 68.9958L77.7678 68.9377C77.6515 68.2396 77.5351 67.5416 77.4188 66.829C77.2879 66.0437 77.1425 65.2584 77.0116 64.4876C76.8952 63.8332 75.7027 64.1531 75.8045 64.7203C77.5642 74.7111 79.033 84.7456 80.1964 94.8237C80.5309 97.674 80.8363 100.539 81.1272 103.389C81.1999 104.044 82.3924 103.738 82.3342 103.157C81.6653 96.4815 80.8654 89.8064 79.9492 83.1459ZM82.0724 76.5144C81.5489 74.1439 80.9672 71.788 80.3419 69.4321C80.2401 69.054 79.0767 69.4757 79.193 69.912C81.3889 78.1432 82.9741 86.5489 83.9194 95.0127C84.1811 97.3977 84.3993 99.7827 84.5592 102.168C84.5883 102.633 85.7663 102.24 85.7372 101.862C85.141 93.3403 83.9194 84.8619 82.0724 76.5144ZM82.0724 76.5144C81.5489 74.1439 80.9672 71.788 80.3419 69.4321C80.2401 69.054 79.0767 69.4757 79.193 69.912C81.3889 78.1432 82.9741 86.5489 83.9194 95.0127C84.1811 97.3977 84.3993 99.7827 84.5592 102.168C84.5883 102.633 85.7663 102.24 85.7372 101.862C85.141 93.3403 83.9194 84.8619 82.0724 76.5144ZM79.9492 83.1459L79.9347 83.1023L79.6438 81.1681L79.2657 78.7104L77.7824 68.9958L77.7678 68.9377C77.6515 68.2396 77.5351 67.5416 77.4188 66.829C77.2879 66.0437 77.1425 65.2584 77.0116 64.4876C76.8952 63.8332 75.7027 64.1531 75.8045 64.7203C77.5642 74.7111 79.033 84.7456 80.1964 94.8237C80.5309 97.674 80.8363 100.539 81.1272 103.389C81.1999 104.044 82.3924 103.738 82.3342 103.157C81.6653 96.4815 80.8654 89.8064 79.9492 83.1459ZM80.6036 65.7092C80.6036 65.651 80.5891 65.5928 80.5455 65.5638C80.5164 65.5056 80.4727 65.4765 80.4146 65.4474C80.3564 65.4183 80.2837 65.4038 80.2255 65.4038C80.1528 65.3892 80.0801 65.4038 80.0074 65.4183C79.9492 65.4329 79.9056 65.4474 79.8474 65.462C79.7456 65.5056 79.6584 65.5638 79.5711 65.6365C79.542 65.6656 79.5129 65.7092 79.4838 65.7383C79.4402 65.811 79.4111 65.8837 79.3966 65.9564L79.4548 66.3636C79.4548 66.4218 79.4693 66.4799 79.5129 66.509C79.542 66.5672 79.5856 66.5963 79.6438 66.6254C79.702 66.6545 79.7747 66.669 79.8329 66.669C79.9056 66.6835 79.9783 66.669 80.051 66.6545C80.1092 66.6399 80.1528 66.6254 80.211 66.6108C80.3128 66.5672 80.4 66.509 80.4873 66.4363C80.5164 66.4072 80.5455 66.3636 80.5745 66.3345C80.6182 66.2618 80.6473 66.1891 80.6618 66.1018L80.6036 65.7092ZM78.3931 72.7042C78.3931 72.7188 78.3931 72.7188 78.4077 72.7333C78.3931 72.7333 78.3931 72.7188 78.3931 72.7042ZM77.4188 51.3119C77.1716 51.1956 76.8516 51.2974 76.6335 51.4283C76.5171 51.501 76.4008 51.5737 76.3426 51.69C76.3135 51.7482 76.2845 51.8645 76.3717 51.9082C77.2297 52.3299 77.826 53.1734 77.9278 54.1332C77.9423 54.2205 78.1168 54.2495 78.175 54.2495C78.3204 54.2495 78.4804 54.2059 78.6113 54.1623C78.8149 54.075 79.1057 53.9296 79.0912 53.6678C78.9603 52.6644 78.3059 51.7482 77.4188 51.3119ZM56.9863 49.9594C56.8554 49.3632 56.6809 48.6506 55.9974 48.5488C55.3575 48.4615 54.9067 49.0287 54.514 49.5086C53.3215 50.992 52.5944 52.7226 51.9545 54.4968C49.6568 60.7501 48.9878 67.2798 48.5661 73.8531C48.6243 74.1294 48.5225 74.4639 48.8424 74.6384C52.3472 69.4176 55.2121 63.9059 56.55 57.7107C57.0881 55.1512 57.5971 52.5917 56.9863 49.9594ZM56.9863 49.9594C56.8554 49.3632 56.6809 48.6506 55.9974 48.5488C55.3575 48.4615 54.9067 49.0287 54.514 49.5086C53.3215 50.992 52.5944 52.7226 51.9545 54.4968C49.6568 60.7501 48.9878 67.2798 48.5661 73.8531C48.6243 74.1294 48.5225 74.4639 48.8424 74.6384C52.3472 69.4176 55.2121 63.9059 56.55 57.7107C57.0881 55.1512 57.5971 52.5917 56.9863 49.9594ZM78.3931 72.7042C78.3931 72.7188 78.3931 72.7188 78.4077 72.7333C78.3931 72.7333 78.3931 72.7188 78.3931 72.7042ZM77.4188 51.3119C77.1716 51.1956 76.8516 51.2974 76.6335 51.4283C76.5171 51.501 76.4008 51.5737 76.3426 51.69C76.3135 51.7482 76.2845 51.8645 76.3717 51.9082C77.2297 52.3299 77.826 53.1734 77.9278 54.1332C77.9423 54.2205 78.1168 54.2495 78.175 54.2495C78.3204 54.2495 78.4804 54.2059 78.6113 54.1623C78.8149 54.075 79.1057 53.9296 79.0912 53.6678C78.9603 52.6644 78.3059 51.7482 77.4188 51.3119ZM80.6036 65.7092C80.6036 65.651 80.5891 65.5928 80.5455 65.5638C80.5164 65.5056 80.4727 65.4765 80.4146 65.4474C80.3564 65.4183 80.2837 65.4038 80.2255 65.4038C80.1528 65.3892 80.0801 65.4038 80.0074 65.4183C79.9492 65.4329 79.9056 65.4474 79.8474 65.462C79.7456 65.5056 79.6584 65.5638 79.5711 65.6365C79.542 65.6656 79.5129 65.7092 79.4838 65.7383C79.4402 65.811 79.4111 65.8837 79.3966 65.9564L79.4548 66.3636C79.4548 66.4218 79.4693 66.4799 79.5129 66.509C79.542 66.5672 79.5856 66.5963 79.6438 66.6254C79.702 66.6545 79.7747 66.669 79.8329 66.669C79.9056 66.6835 79.9783 66.669 80.051 66.6545C80.1092 66.6399 80.1528 66.6254 80.211 66.6108C80.3128 66.5672 80.4 66.509 80.4873 66.4363C80.5164 66.4072 80.5455 66.3636 80.5745 66.3345C80.6182 66.2618 80.6473 66.1891 80.6618 66.1018L80.6036 65.7092ZM79.9492 83.1459L79.9347 83.1023L79.6438 81.1681L79.2657 78.7104L77.7824 68.9958L77.7678 68.9377C77.6515 68.2396 77.5351 67.5416 77.4188 66.829C77.2879 66.0437 77.1425 65.2584 77.0116 64.4876C76.8952 63.8332 75.7027 64.1531 75.8045 64.7203C77.5642 74.7111 79.033 84.7456 80.1964 94.8237C80.5309 97.674 80.8363 100.539 81.1272 103.389C81.1999 104.044 82.3924 103.738 82.3342 103.157C81.6653 96.4815 80.8654 89.8064 79.9492 83.1459ZM82.0724 76.5144C81.5489 74.1439 80.9672 71.788 80.3419 69.4321C80.2401 69.054 79.0767 69.4757 79.193 69.912C81.3889 78.1432 82.9741 86.5489 83.9194 95.0127C84.1811 97.3977 84.3993 99.7827 84.5592 102.168C84.5883 102.633 85.7663 102.24 85.7372 101.862C85.141 93.3403 83.9194 84.8619 82.0724 76.5144ZM82.0724 76.5144C81.5489 74.1439 80.9672 71.788 80.3419 69.4321C80.2401 69.054 79.0767 69.4757 79.193 69.912C81.3889 78.1432 82.9741 86.5489 83.9194 95.0127C84.1811 97.3977 84.3993 99.7827 84.5592 102.168C84.5883 102.633 85.7663 102.24 85.7372 101.862C85.141 93.3403 83.9194 84.8619 82.0724 76.5144ZM79.9492 83.1459L79.9347 83.1023L79.6438 81.1681L79.2657 78.7104L77.7824 68.9958L77.7678 68.9377C77.6515 68.2396 77.5351 67.5416 77.4188 66.829C77.2879 66.0437 77.1425 65.2584 77.0116 64.4876C76.8952 63.8332 75.7027 64.1531 75.8045 64.7203C77.5642 74.7111 79.033 84.7456 80.1964 94.8237C80.5309 97.674 80.8363 100.539 81.1272 103.389C81.1999 104.044 82.3924 103.738 82.3342 103.157C81.6653 96.4815 80.8654 89.8064 79.9492 83.1459ZM80.6036 65.7092C80.6036 65.651 80.5891 65.5928 80.5455 65.5638C80.5164 65.5056 80.4727 65.4765 80.4146 65.4474C80.3564 65.4183 80.2837 65.4038 80.2255 65.4038C80.1528 65.3892 80.0801 65.4038 80.0074 65.4183C79.9492 65.4329 79.9056 65.4474 79.8474 65.462C79.7456 65.5056 79.6584 65.5638 79.5711 65.6365C79.542 65.6656 79.5129 65.7092 79.4838 65.7383C79.4402 65.811 79.4111 65.8837 79.3966 65.9564L79.4548 66.3636C79.4548 66.4218 79.4693 66.4799 79.5129 66.509C79.542 66.5672 79.5856 66.5963 79.6438 66.6254C79.702 66.6545 79.7747 66.669 79.8329 66.669C79.9056 66.6835 79.9783 66.669 80.051 66.6545C80.1092 66.6399 80.1528 66.6254 80.211 66.6108C80.3128 66.5672 80.4 66.509 80.4873 66.4363C80.5164 66.4072 80.5455 66.3636 80.5745 66.3345C80.6182 66.2618 80.6473 66.1891 80.6618 66.1018L80.6036 65.7092ZM78.3931 72.7042C78.3931 72.7188 78.3931 72.7188 78.4077 72.7333C78.3931 72.7333 78.3931 72.7188 78.3931 72.7042ZM77.4188 51.3119C77.1716 51.1956 76.8516 51.2974 76.6335 51.4283C76.5171 51.501 76.4008 51.5737 76.3426 51.69C76.3135 51.7482 76.2845 51.8645 76.3717 51.9082C77.2297 52.3299 77.826 53.1734 77.9278 54.1332C77.9423 54.2205 78.1168 54.2495 78.175 54.2495C78.3204 54.2495 78.4804 54.2059 78.6113 54.1623C78.8149 54.075 79.1057 53.9296 79.0912 53.6678C78.9603 52.6644 78.3059 51.7482 77.4188 51.3119ZM56.9863 49.9594C56.8554 49.3632 56.6809 48.6506 55.9974 48.5488C55.3575 48.4615 54.9067 49.0287 54.514 49.5086C53.3215 50.992 52.5944 52.7226 51.9545 54.4968C49.6568 60.7501 48.9878 67.2798 48.5661 73.8531C48.6243 74.1294 48.5225 74.4639 48.8424 74.6384C52.3472 69.4176 55.2121 63.9059 56.55 57.7107C57.0881 55.1512 57.5971 52.5917 56.9863 49.9594ZM56.9863 49.9594C56.8554 49.3632 56.6809 48.6506 55.9974 48.5488C55.3575 48.4615 54.9067 49.0287 54.514 49.5086C53.3215 50.992 52.5944 52.7226 51.9545 54.4968C49.6568 60.7501 48.9878 67.2798 48.5661 73.8531C48.6243 74.1294 48.5225 74.4639 48.8424 74.6384C52.3472 69.4176 55.2121 63.9059 56.55 57.7107C57.0881 55.1512 57.5971 52.5917 56.9863 49.9594ZM78.3931 72.7042C78.3931 72.7188 78.3931 72.7188 78.4077 72.7333C78.3931 72.7333 78.3931 72.7188 78.3931 72.7042ZM77.4188 51.3119C77.1716 51.1956 76.8516 51.2974 76.6335 51.4283C76.5171 51.501 76.4008 51.5737 76.3426 51.69C76.3135 51.7482 76.2845 51.8645 76.3717 51.9082C77.2297 52.3299 77.826 53.1734 77.9278 54.1332C77.9423 54.2205 78.1168 54.2495 78.175 54.2495C78.3204 54.2495 78.4804 54.2059 78.6113 54.1623C78.8149 54.075 79.1057 53.9296 79.0912 53.6678C78.9603 52.6644 78.3059 51.7482 77.4188 51.3119ZM80.6036 65.7092C80.6036 65.651 80.5891 65.5928 80.5455 65.5638C80.5164 65.5056 80.4727 65.4765 80.4146 65.4474C80.3564 65.4183 80.2837 65.4038 80.2255 65.4038C80.1528 65.3892 80.0801 65.4038 80.0074 65.4183C79.9492 65.4329 79.9056 65.4474 79.8474 65.462C79.7456 65.5056 79.6584 65.5638 79.5711 65.6365C79.542 65.6656 79.5129 65.7092 79.4838 65.7383C79.4402 65.811 79.4111 65.8837 79.3966 65.9564L79.4548 66.3636C79.4548 66.4218 79.4693 66.4799 79.5129 66.509C79.542 66.5672 79.5856 66.5963 79.6438 66.6254C79.702 66.6545 79.7747 66.669 79.8329 66.669C79.9056 66.6835 79.9783 66.669 80.051 66.6545C80.1092 66.6399 80.1528 66.6254 80.211 66.6108C80.3128 66.5672 80.4 66.509 80.4873 66.4363C80.5164 66.4072 80.5455 66.3636 80.5745 66.3345C80.6182 66.2618 80.6473 66.1891 80.6618 66.1018L80.6036 65.7092ZM79.9492 83.1459L79.9347 83.1023L79.6438 81.1681L79.2657 78.7104L77.7824 68.9958L77.7678 68.9377C77.6515 68.2396 77.5351 67.5416 77.4188 66.829C77.2879 66.0437 77.1425 65.2584 77.0116 64.4876C76.8952 63.8332 75.7027 64.1531 75.8045 64.7203C77.5642 74.7111 79.033 84.7456 80.1964 94.8237C80.5309 97.674 80.8363 100.539 81.1272 103.389C81.1999 104.044 82.3924 103.738 82.3342 103.157C81.6653 96.4815 80.8654 89.8064 79.9492 83.1459ZM82.0724 76.5144C81.5489 74.1439 80.9672 71.788 80.3419 69.4321C80.2401 69.054 79.0767 69.4757 79.193 69.912C81.3889 78.1432 82.9741 86.5489 83.9194 95.0127C84.1811 97.3977 84.3993 99.7827 84.5592 102.168C84.5883 102.633 85.7663 102.24 85.7372 101.862C85.141 93.3403 83.9194 84.8619 82.0724 76.5144ZM82.0724 76.5144C81.5489 74.1439 80.9672 71.788 80.3419 69.4321C80.2401 69.054 79.0767 69.4757 79.193 69.912C81.3889 78.1432 82.9741 86.5489 83.9194 95.0127C84.1811 97.3977 84.3993 99.7827 84.5592 102.168C84.5883 102.633 85.7663 102.24 85.7372 101.862C85.141 93.3403 83.9194 84.8619 82.0724 76.5144ZM79.9347 83.1023L79.6438 81.1681L79.2657 78.7104L77.7824 68.9958L77.7678 68.9377C77.6515 68.2396 77.5351 67.5416 77.4188 66.829C77.2879 66.0437 77.1425 65.2584 77.0116 64.4876C76.8952 63.8332 75.7027 64.1531 75.8045 64.7203C77.5642 74.7111 79.033 84.7456 80.1964 94.8237C80.5309 97.674 80.8363 100.539 81.1272 103.389C81.1999 104.044 82.3924 103.738 82.3342 103.157C81.6653 96.467 80.8799 89.7919 79.9492 83.1313L79.9347 83.1023ZM79.5129 66.5236C79.542 66.5817 79.5856 66.6108 79.6438 66.6399C79.702 66.669 79.7747 66.6835 79.8329 66.6835C79.9056 66.6981 79.9783 66.6835 80.051 66.669C80.1092 66.6545 80.1528 66.6399 80.211 66.6254C80.3128 66.5817 80.4 66.5236 80.4873 66.4509C80.5164 66.4218 80.5455 66.3781 80.5745 66.3491C80.6182 66.2763 80.6473 66.2036 80.6618 66.1164L80.6036 65.7092C80.6036 65.651 80.5891 65.5928 80.5455 65.5638C80.5164 65.5056 80.4727 65.4765 80.4146 65.4474C80.3564 65.4183 80.2837 65.4038 80.2255 65.4038C80.1528 65.3892 80.0801 65.4038 80.0074 65.4183C79.9492 65.4329 79.9056 65.4474 79.8474 65.462C79.7456 65.5056 79.6584 65.5638 79.5711 65.6365C79.542 65.6656 79.5129 65.7092 79.4838 65.7383C79.4402 65.811 79.4111 65.8837 79.3966 65.9564L79.4548 66.3636C79.4548 66.4363 79.4693 66.4799 79.5129 66.5236ZM78.3931 72.7042C78.3931 72.7188 78.3931 72.7188 78.4077 72.7333C78.3931 72.7333 78.3931 72.7188 78.3931 72.7042ZM77.4188 51.3119C77.1716 51.1956 76.8516 51.2974 76.6335 51.4283C76.5171 51.501 76.4008 51.5737 76.3426 51.69C76.3135 51.7482 76.2845 51.8645 76.3717 51.9082C77.2297 52.3299 77.826 53.1734 77.9278 54.1332C77.9423 54.2205 78.1168 54.2495 78.175 54.2495C78.3204 54.2495 78.4804 54.2059 78.6113 54.1623C78.8149 54.075 79.1057 53.9296 79.0912 53.6678C78.9603 52.6644 78.3059 51.7482 77.4188 51.3119ZM56.9863 49.9594C56.8554 49.3632 56.6809 48.6506 55.9974 48.5488C55.3575 48.4615 54.9067 49.0287 54.514 49.5086C53.3215 50.992 52.5944 52.7226 51.9545 54.4968C49.6568 60.7501 48.9878 67.2798 48.5661 73.8531C48.6243 74.1294 48.5225 74.4639 48.8424 74.6384C52.3472 69.4176 55.2121 63.9059 56.55 57.7107C57.0881 55.1512 57.5971 52.5917 56.9863 49.9594ZM101.094 116.347C100.6 107.141 100.018 97.9503 99.4655 88.7448C98.3457 70.3483 97.2405 51.9518 96.1207 33.5553C95.9607 30.9958 94.9718 30.0069 92.4268 29.9051C91.0162 29.8469 89.6056 29.8178 88.2095 29.9051C87.0024 29.9778 86.6243 29.4543 86.4498 28.3054C86.1153 26.2694 85.7808 24.1753 85.0537 22.2556C81.3017 12.4248 71.1363 6.44771 60.622 8.3528C50.0349 10.2724 43.0689 18.6199 42.2836 28.349C42.1818 29.5706 41.6583 29.9487 40.4949 29.9051C38.8806 29.8324 37.2664 29.8469 35.6522 29.9051C33.209 29.9923 32.1619 31.0249 32.0165 33.4389C31.6093 39.7214 31.2457 46.0184 30.8676 52.3008C30.1114 64.7785 29.3552 77.2561 28.599 89.7337C28.0463 98.7211 27.4792 107.708 27.0138 116.696C26.8538 119.692 28.0754 120.811 31.1003 120.811C42.08 120.811 53.0743 120.811 64.054 120.811C75.1501 120.811 86.2317 120.797 97.3277 120.826C98.6802 120.826 99.9309 120.564 100.513 119.328C100.949 118.441 101.138 117.336 101.094 116.347ZM64.025 105.6C63.865 105.687 63.6905 105.774 63.516 105.832C62.6289 106.094 61.6836 105.832 61.6836 105.832C61.48 105.745 61.3055 105.643 61.1164 105.527C58.9641 104.218 58.6151 101.95 58.5569 99.6518C58.4697 95.5363 59.2113 91.5079 59.9385 87.4796C60.302 85.4727 60.7092 83.4513 60.622 81.3862C60.6074 80.9936 60.6074 80.5864 60.5202 80.2228C60.2002 78.9139 59.6185 78.7249 58.6296 79.6411C56.4482 81.648 54.8631 84.1057 53.2488 86.5343C51.8382 88.6576 50.7766 90.9408 49.7295 93.253C49.3078 94.2129 48.8133 95.1291 48.1153 95.9434C47.6208 96.5106 47.0391 96.8596 46.2683 96.5688C45.5267 96.2925 45.1631 95.6962 45.1631 94.94C45.1631 92.3223 45.0904 89.6901 45.2503 87.0869C45.3376 85.6472 45.3521 84.222 45.4103 82.7096C44.8141 82.7532 44.465 83.1604 44.0869 83.4804C43.4907 83.9894 42.8653 84.4838 42.1382 84.7747C41.5129 85.0219 40.9021 84.9346 40.5676 84.2657C40.2477 83.6258 40.5821 83.1459 41.1057 82.8405C42.0219 82.3024 42.749 81.5316 43.607 80.9354C45.3085 79.772 45.8611 78.1723 45.9629 76.1508C46.3265 69.054 46.8791 61.9717 49.0896 55.1512C49.7586 53.0716 50.5293 51.0356 51.7073 49.1741C51.8964 48.8833 52.0854 48.5779 52.289 48.3016C53.656 46.4692 55.3866 45.6548 56.9718 46.1202C58.3097 46.5128 59.4295 48.4179 59.604 50.483C60.0403 55.8056 58.5715 60.7501 56.6082 65.5783C54.6304 70.4646 51.78 74.8565 48.5661 79.0157C48.3189 79.3211 48.1007 79.6556 48.0716 80.0628C47.8826 83.8439 47.6935 87.625 47.5045 91.4207C48.0571 91.4352 47.9989 91.0426 48.1153 90.7953C50.1658 86.3744 52.8562 82.3606 56.0265 78.6522C56.361 78.2595 56.7972 77.9541 57.2044 77.6196C58.2951 76.6889 59.5167 76.0781 60.9128 76.8053C62.3089 77.5178 62.9052 78.8121 63.0215 80.3391C63.2542 83.4658 62.658 86.5052 62.0762 89.5447C61.48 92.6277 61.1455 95.7398 60.971 98.8665C60.9128 100.015 61.0728 101.222 61.5236 102.328C62.0035 103.491 62.5562 103.666 63.6469 103.011C64.7666 102.357 65.3193 101.237 65.7701 100.103C66.25 98.9392 66.5699 97.7031 66.9771 96.5106C67.1953 95.8562 67.617 95.449 68.3587 95.5944C69.0858 95.7398 69.2894 96.2634 69.304 96.9469C69.3621 100.044 66.8172 104.131 64.025 105.6ZM64.3449 29.8905C60.3457 29.8905 56.3464 29.8469 52.3472 29.9196C50.9802 29.9487 50.5875 29.4397 50.8202 28.16C51.8091 22.7792 54.8776 19.0708 59.9966 17.3111C65.2175 15.5078 69.9438 16.7439 73.9722 20.4814C76.1681 22.5319 77.4333 25.106 77.9569 28.0727C78.1895 29.4106 77.8114 29.9487 76.3572 29.9196C72.3434 29.8324 68.3441 29.8905 64.3449 29.8905ZM72.8669 53.8278C72.5615 51.5155 74.1031 50.0176 77.2006 49.654C78.7276 49.465 79.9347 50.6575 80.1964 52.5917C80.6909 55.602 79.3239 56.9399 77.9714 57.1581C75.6737 57.5362 73.1287 55.8347 72.8669 53.8278ZM84.4138 107.243C84.1666 107.287 83.9048 107.33 83.6576 107.33C82.7414 107.33 81.8107 107.912 80.9236 107.33C79.5275 106.429 78.8294 105.222 78.8003 103.447C78.6985 98.1685 77.7824 92.9622 76.9534 87.7705C75.9209 81.2699 75.092 74.7402 74.2485 68.2251C74.1176 67.2653 74.1031 66.2763 74.1321 65.3165C74.1758 64.0513 75.2374 63.6296 76.1827 63.3533C77.8551 62.8443 79.6438 63.1351 81.3744 62.9461C81.418 62.9461 81.4617 62.9461 81.4907 62.9461C82.1888 62.9461 82.5087 63.6296 82.7414 64.2549C82.7269 64.2695 82.7269 64.284 82.7123 64.2985C82.7269 64.2985 82.7414 64.2985 82.756 64.2985L83.8321 72.5733L83.8176 72.5879C83.8321 72.5879 83.8321 72.6024 83.8467 72.6024C84.6756 82.855 86.2462 93.0058 87.6132 103.2C87.9331 105.745 86.8279 106.88 84.4138 107.243ZM80.3419 69.4467C80.2401 69.0685 79.0767 69.4903 79.193 69.9266C81.3889 78.1577 82.9741 86.5634 83.9194 95.0273C84.1811 97.4123 84.3993 99.7973 84.5592 102.182C84.5883 102.648 85.7663 102.255 85.7372 101.877C85.141 93.3548 83.9339 84.8765 82.0724 76.5289C81.5489 74.1439 80.9672 71.788 80.3419 69.4467ZM79.9347 83.1023L79.6438 81.1681L79.2657 78.7104L77.7824 68.9958L77.7678 68.9377C77.6515 68.2396 77.5351 67.5416 77.4188 66.829C77.2879 66.0437 77.1425 65.2584 77.0116 64.4876C76.8952 63.8332 75.7027 64.1531 75.8045 64.7203C77.5642 74.7111 79.033 84.7456 80.1964 94.8237C80.5309 97.674 80.8363 100.539 81.1272 103.389C81.1999 104.044 82.3924 103.738 82.3342 103.157C81.6653 96.467 80.8799 89.7919 79.9492 83.1313L79.9347 83.1023ZM79.5129 66.5236C79.542 66.5817 79.5856 66.6108 79.6438 66.6399C79.702 66.669 79.7747 66.6835 79.8329 66.6835C79.9056 66.6981 79.9783 66.6835 80.051 66.669C80.1092 66.6545 80.1528 66.6399 80.211 66.6254C80.3128 66.5817 80.4 66.5236 80.4873 66.4509C80.5164 66.4218 80.5455 66.3781 80.5745 66.3491C80.6182 66.2763 80.6473 66.2036 80.6618 66.1164L80.6036 65.7092C80.6036 65.651 80.5891 65.5928 80.5455 65.5638C80.5164 65.5056 80.4727 65.4765 80.4146 65.4474C80.3564 65.4183 80.2837 65.4038 80.2255 65.4038C80.1528 65.3892 80.0801 65.4038 80.0074 65.4183C79.9492 65.4329 79.9056 65.4474 79.8474 65.462C79.7456 65.5056 79.6584 65.5638 79.5711 65.6365C79.542 65.6656 79.5129 65.7092 79.4838 65.7383C79.4402 65.811 79.4111 65.8837 79.3966 65.9564L79.4548 66.3636C79.4548 66.4363 79.4693 66.4799 79.5129 66.5236ZM78.1459 54.235C78.2913 54.235 78.4513 54.1914 78.5822 54.1477C78.7858 54.0605 79.0767 53.9151 79.0621 53.6533C78.9603 52.6644 78.3059 51.7482 77.4188 51.3119C77.1716 51.1956 76.8516 51.2974 76.6335 51.4283C76.5171 51.501 76.4008 51.5737 76.3426 51.69C76.3135 51.7482 76.2845 51.8645 76.3717 51.9082C77.2297 52.3299 77.826 53.1734 77.9278 54.1332C77.9132 54.2059 78.1023 54.235 78.1459 54.235ZM78.3931 72.7042C78.3931 72.7188 78.3931 72.7188 78.4077 72.7333C78.3931 72.7333 78.3931 72.7188 78.3931 72.7042ZM48.8424 74.6529C52.3472 69.4321 55.2121 63.9204 56.55 57.7252C57.1026 55.1657 57.6116 52.5917 57.0008 49.974C56.87 49.3777 56.6954 48.6651 56.0119 48.5633C55.3721 48.4761 54.9212 49.0433 54.5286 49.5232C53.3361 51.0065 52.6089 52.7371 51.9691 54.5113C49.6713 60.7647 49.0024 67.2943 48.5806 73.8676C48.6243 74.1294 48.5079 74.4639 48.8424 74.6529ZM56.9863 49.9594C56.8554 49.3632 56.6809 48.6506 55.9974 48.5488C55.3575 48.4615 54.9067 49.0287 54.514 49.5086C53.3215 50.992 52.5944 52.7226 51.9545 54.4968C49.6568 60.7501 48.9878 67.2798 48.5661 73.8531C48.6243 74.1294 48.5225 74.4639 48.8424 74.6384C52.3472 69.4176 55.2121 63.9059 56.55 57.7107C57.0881 55.1512 57.5971 52.5917 56.9863 49.9594ZM77.4188 51.3119C77.1716 51.1956 76.8516 51.2974 76.6335 51.4283C76.5171 51.501 76.4008 51.5737 76.3426 51.69C76.3135 51.7482 76.2845 51.8645 76.3717 51.9082C77.2297 52.3299 77.826 53.1734 77.9278 54.1332C77.9423 54.2205 78.1168 54.2495 78.175 54.2495C78.3204 54.2495 78.4804 54.2059 78.6113 54.1623C78.8149 54.075 79.1057 53.9296 79.0912 53.6678C78.9603 52.6644 78.3059 51.7482 77.4188 51.3119ZM78.3931 72.7042C78.3931 72.7188 78.3931 72.7188 78.4077 72.7333C78.3931 72.7333 78.3931 72.7188 78.3931 72.7042ZM80.6036 65.7092C80.6036 65.651 80.5891 65.5928 80.5455 65.5638C80.5164 65.5056 80.4727 65.4765 80.4146 65.4474C80.3564 65.4183 80.2837 65.4038 80.2255 65.4038C80.1528 65.3892 80.0801 65.4038 80.0074 65.4183C79.9492 65.4329 79.9056 65.4474 79.8474 65.462C79.7456 65.5056 79.6584 65.5638 79.5711 65.6365C79.542 65.6656 79.5129 65.7092 79.4838 65.7383C79.4402 65.811 79.4111 65.8837 79.3966 65.9564L79.4548 66.3636C79.4548 66.4218 79.4693 66.4799 79.5129 66.509C79.542 66.5672 79.5856 66.5963 79.6438 66.6254C79.702 66.6545 79.7747 66.669 79.8329 66.669C79.9056 66.6835 79.9783 66.669 80.051 66.6545C80.1092 66.6399 80.1528 66.6254 80.211 66.6108C80.3128 66.5672 80.4 66.509 80.4873 66.4363C80.5164 66.4072 80.5455 66.3636 80.5745 66.3345C80.6182 66.2618 80.6473 66.1891 80.6618 66.1018L80.6036 65.7092ZM79.9492 83.1459L79.9347 83.1023L79.6438 81.1681L79.2657 78.7104L77.7824 68.9958L77.7678 68.9377C77.6515 68.2396 77.5351 67.5416 77.4188 66.829C77.2879 66.0437 77.1425 65.2584 77.0116 64.4876C76.8952 63.8332 75.7027 64.1531 75.8045 64.7203C77.5642 74.7111 79.033 84.7456 80.1964 94.8237C80.5309 97.674 80.8363 100.539 81.1272 103.389C81.1999 104.044 82.3924 103.738 82.3342 103.157C81.6653 96.4815 80.8654 89.8064 79.9492 83.1459ZM82.0724 76.5144C81.5489 74.1439 80.9672 71.788 80.3419 69.4321C80.2401 69.054 79.0767 69.4757 79.193 69.912C81.3889 78.1432 82.9741 86.5489 83.9194 95.0127C84.1811 97.3977 84.3993 99.7827 84.5592 102.168C84.5883 102.633 85.7663 102.24 85.7372 101.862C85.141 93.3403 83.9194 84.8619 82.0724 76.5144ZM82.0724 76.5144C81.5489 74.1439 80.9672 71.788 80.3419 69.4321C80.2401 69.054 79.0767 69.4757 79.193 69.912C81.3889 78.1432 82.9741 86.5489 83.9194 95.0127C84.1811 97.3977 84.3993 99.7827 84.5592 102.168C84.5883 102.633 85.7663 102.24 85.7372 101.862C85.141 93.3403 83.9194 84.8619 82.0724 76.5144ZM79.9492 83.1459L79.9347 83.1023L79.6438 81.1681L79.2657 78.7104L77.7824 68.9958L77.7678 68.9377C77.6515 68.2396 77.5351 67.5416 77.4188 66.829C77.2879 66.0437 77.1425 65.2584 77.0116 64.4876C76.8952 63.8332 75.7027 64.1531 75.8045 64.7203C77.5642 74.7111 79.033 84.7456 80.1964 94.8237C80.5309 97.674 80.8363 100.539 81.1272 103.389C81.1999 104.044 82.3924 103.738 82.3342 103.157C81.6653 96.4815 80.8654 89.8064 79.9492 83.1459ZM80.6036 65.7092C80.6036 65.651 80.5891 65.5928 80.5455 65.5638C80.5164 65.5056 80.4727 65.4765 80.4146 65.4474C80.3564 65.4183 80.2837 65.4038 80.2255 65.4038C80.1528 65.3892 80.0801 65.4038 80.0074 65.4183C79.9492 65.4329 79.9056 65.4474 79.8474 65.462C79.7456 65.5056 79.6584 65.5638 79.5711 65.6365C79.542 65.6656 79.5129 65.7092 79.4838 65.7383C79.4402 65.811 79.4111 65.8837 79.3966 65.9564L79.4548 66.3636C79.4548 66.4218 79.4693 66.4799 79.5129 66.509C79.542 66.5672 79.5856 66.5963 79.6438 66.6254C79.702 66.6545 79.7747 66.669 79.8329 66.669C79.9056 66.6835 79.9783 66.669 80.051 66.6545C80.1092 66.6399 80.1528 66.6254 80.211 66.6108C80.3128 66.5672 80.4 66.509 80.4873 66.4363C80.5164 66.4072 80.5455 66.3636 80.5745 66.3345C80.6182 66.2618 80.6473 66.1891 80.6618 66.1018L80.6036 65.7092ZM77.4188 51.3119C77.1716 51.1956 76.8516 51.2974 76.6335 51.4283C76.5171 51.501 76.4008 51.5737 76.3426 51.69C76.3135 51.7482 76.2845 51.8645 76.3717 51.9082C77.2297 52.3299 77.826 53.1734 77.9278 54.1332C77.9423 54.2205 78.1168 54.2495 78.175 54.2495C78.3204 54.2495 78.4804 54.2059 78.6113 54.1623C78.8149 54.075 79.1057 53.9296 79.0912 53.6678C78.9603 52.6644 78.3059 51.7482 77.4188 51.3119ZM78.3931 72.7042C78.3931 72.7188 78.3931 72.7188 78.4077 72.7333C78.3931 72.7333 78.3931 72.7188 78.3931 72.7042ZM56.9863 49.9594C56.8554 49.3632 56.6809 48.6506 55.9974 48.5488C55.3575 48.4615 54.9067 49.0287 54.514 49.5086C53.3215 50.992 52.5944 52.7226 51.9545 54.4968C49.6568 60.7501 48.9878 67.2798 48.5661 73.8531C48.6243 74.1294 48.5225 74.4639 48.8424 74.6384C52.3472 69.4176 55.2121 63.9059 56.55 57.7107C57.0881 55.1512 57.5971 52.5917 56.9863 49.9594ZM56.9863 49.9594C56.8554 49.3632 56.6809 48.6506 55.9974 48.5488C55.3575 48.4615 54.9067 49.0287 54.514 49.5086C53.3215 50.992 52.5944 52.7226 51.9545 54.4968C49.6568 60.7501 48.9878 67.2798 48.5661 73.8531C48.6243 74.1294 48.5225 74.4639 48.8424 74.6384C52.3472 69.4176 55.2121 63.9059 56.55 57.7107C57.0881 55.1512 57.5971 52.5917 56.9863 49.9594ZM77.4188 51.3119C77.1716 51.1956 76.8516 51.2974 76.6335 51.4283C76.5171 51.501 76.4008 51.5737 76.3426 51.69C76.3135 51.7482 76.2845 51.8645 76.3717 51.9082C77.2297 52.3299 77.826 53.1734 77.9278 54.1332C77.9423 54.2205 78.1168 54.2495 78.175 54.2495C78.3204 54.2495 78.4804 54.2059 78.6113 54.1623C78.8149 54.075 79.1057 53.9296 79.0912 53.6678C78.9603 52.6644 78.3059 51.7482 77.4188 51.3119ZM78.3931 72.7042C78.3931 72.7188 78.3931 72.7188 78.4077 72.7333C78.3931 72.7333 78.3931 72.7188 78.3931 72.7042ZM80.6036 65.7092C80.6036 65.651 80.5891 65.5928 80.5455 65.5638C80.5164 65.5056 80.4727 65.4765 80.4146 65.4474C80.3564 65.4183 80.2837 65.4038 80.2255 65.4038C80.1528 65.3892 80.0801 65.4038 80.0074 65.4183C79.9492 65.4329 79.9056 65.4474 79.8474 65.462C79.7456 65.5056 79.6584 65.5638 79.5711 65.6365C79.542 65.6656 79.5129 65.7092 79.4838 65.7383C79.4402 65.811 79.4111 65.8837 79.3966 65.9564L79.4548 66.3636C79.4548 66.4218 79.4693 66.4799 79.5129 66.509C79.542 66.5672 79.5856 66.5963 79.6438 66.6254C79.702 66.6545 79.7747 66.669 79.8329 66.669C79.9056 66.6835 79.9783 66.669 80.051 66.6545C80.1092 66.6399 80.1528 66.6254 80.211 66.6108C80.3128 66.5672 80.4 66.509 80.4873 66.4363C80.5164 66.4072 80.5455 66.3636 80.5745 66.3345C80.6182 66.2618 80.6473 66.1891 80.6618 66.1018L80.6036 65.7092ZM79.9492 83.1459L79.9347 83.1023L79.6438 81.1681L79.2657 78.7104L77.7824 68.9958L77.7678 68.9377C77.6515 68.2396 77.5351 67.5416 77.4188 66.829C77.2879 66.0437 77.1425 65.2584 77.0116 64.4876C76.8952 63.8332 75.7027 64.1531 75.8045 64.7203C77.5642 74.7111 79.033 84.7456 80.1964 94.8237C80.5309 97.674 80.8363 100.539 81.1272 103.389C81.1999 104.044 82.3924 103.738 82.3342 103.157C81.6653 96.4815 80.8654 89.8064 79.9492 83.1459ZM82.0724 76.5144C81.5489 74.1439 80.9672 71.788 80.3419 69.4321C80.2401 69.054 79.0767 69.4757 79.193 69.912C81.3889 78.1432 82.9741 86.5489 83.9194 95.0127C84.1811 97.3977 84.3993 99.7827 84.5592 102.168C84.5883 102.633 85.7663 102.24 85.7372 101.862C85.141 93.3403 83.9194 84.8619 82.0724 76.5144ZM82.0724 76.5144C81.5489 74.1439 80.9672 71.788 80.3419 69.4321C80.2401 69.054 79.0767 69.4757 79.193 69.912C81.3889 78.1432 82.9741 86.5489 83.9194 95.0127C84.1811 97.3977 84.3993 99.7827 84.5592 102.168C84.5883 102.633 85.7663 102.24 85.7372 101.862C85.141 93.3403 83.9194 84.8619 82.0724 76.5144ZM79.9492 83.1459L79.9347 83.1023L79.6438 81.1681L79.2657 78.7104L77.7824 68.9958L77.7678 68.9377C77.6515 68.2396 77.5351 67.5416 77.4188 66.829C77.2879 66.0437 77.1425 65.2584 77.0116 64.4876C76.8952 63.8332 75.7027 64.1531 75.8045 64.7203C77.5642 74.7111 79.033 84.7456 80.1964 94.8237C80.5309 97.674 80.8363 100.539 81.1272 103.389C81.1999 104.044 82.3924 103.738 82.3342 103.157C81.6653 96.4815 80.8654 89.8064 79.9492 83.1459ZM80.6036 65.7092C80.6036 65.651 80.5891 65.5928 80.5455 65.5638C80.5164 65.5056 80.4727 65.4765 80.4146 65.4474C80.3564 65.4183 80.2837 65.4038 80.2255 65.4038C80.1528 65.3892 80.0801 65.4038 80.0074 65.4183C79.9492 65.4329 79.9056 65.4474 79.8474 65.462C79.7456 65.5056 79.6584 65.5638 79.5711 65.6365C79.542 65.6656 79.5129 65.7092 79.4838 65.7383C79.4402 65.811 79.4111 65.8837 79.3966 65.9564L79.4548 66.3636C79.4548 66.4218 79.4693 66.4799 79.5129 66.509C79.542 66.5672 79.5856 66.5963 79.6438 66.6254C79.702 66.6545 79.7747 66.669 79.8329 66.669C79.9056 66.6835 79.9783 66.669 80.051 66.6545C80.1092 66.6399 80.1528 66.6254 80.211 66.6108C80.3128 66.5672 80.4 66.509 80.4873 66.4363C80.5164 66.4072 80.5455 66.3636 80.5745 66.3345C80.6182 66.2618 80.6473 66.1891 80.6618 66.1018L80.6036 65.7092ZM77.4188 51.3119C77.1716 51.1956 76.8516 51.2974 76.6335 51.4283C76.5171 51.501 76.4008 51.5737 76.3426 51.69C76.3135 51.7482 76.2845 51.8645 76.3717 51.9082C77.2297 52.3299 77.826 53.1734 77.9278 54.1332C77.9423 54.2205 78.1168 54.2495 78.175 54.2495C78.3204 54.2495 78.4804 54.2059 78.6113 54.1623C78.8149 54.075 79.1057 53.9296 79.0912 53.6678C78.9603 52.6644 78.3059 51.7482 77.4188 51.3119ZM78.3931 72.7042C78.3931 72.7188 78.3931 72.7188 78.4077 72.7333C78.3931 72.7333 78.3931 72.7188 78.3931 72.7042ZM56.9863 49.9594C56.8554 49.3632 56.6809 48.6506 55.9974 48.5488C55.3575 48.4615 54.9067 49.0287 54.514 49.5086C53.3215 50.992 52.5944 52.7226 51.9545 54.4968C49.6568 60.7501 48.9878 67.2798 48.5661 73.8531C48.6243 74.1294 48.5225 74.4639 48.8424 74.6384C52.3472 69.4176 55.2121 63.9059 56.55 57.7107C57.0881 55.1512 57.5971 52.5917 56.9863 49.9594ZM56.9863 49.9594C56.8554 49.3632 56.6809 48.6506 55.9974 48.5488C55.3575 48.4615 54.9067 49.0287 54.514 49.5086C53.3215 50.992 52.5944 52.7226 51.9545 54.4968C49.6568 60.7501 48.9878 67.2798 48.5661 73.8531C48.6243 74.1294 48.5225 74.4639 48.8424 74.6384C52.3472 69.4176 55.2121 63.9059 56.55 57.7107C57.0881 55.1512 57.5971 52.5917 56.9863 49.9594ZM77.4188 51.3119C77.1716 51.1956 76.8516 51.2974 76.6335 51.4283C76.5171 51.501 76.4008 51.5737 76.3426 51.69C76.3135 51.7482 76.2845 51.8645 76.3717 51.9082C77.2297 52.3299 77.826 53.1734 77.9278 54.1332C77.9423 54.2205 78.1168 54.2495 78.175 54.2495C78.3204 54.2495 78.4804 54.2059 78.6113 54.1623C78.8149 54.075 79.1057 53.9296 79.0912 53.6678C78.9603 52.6644 78.3059 51.7482 77.4188 51.3119ZM78.3931 72.7042C78.3931 72.7188 78.3931 72.7188 78.4077 72.7333C78.3931 72.7333 78.3931 72.7188 78.3931 72.7042ZM80.6036 65.7092C80.6036 65.651 80.5891 65.5928 80.5455 65.5638C80.5164 65.5056 80.4727 65.4765 80.4146 65.4474C80.3564 65.4183 80.2837 65.4038 80.2255 65.4038C80.1528 65.3892 80.0801 65.4038 80.0074 65.4183C79.9492 65.4329 79.9056 65.4474 79.8474 65.462C79.7456 65.5056 79.6584 65.5638 79.5711 65.6365C79.542 65.6656 79.5129 65.7092 79.4838 65.7383C79.4402 65.811 79.4111 65.8837 79.3966 65.9564L79.4548 66.3636C79.4548 66.4218 79.4693 66.4799 79.5129 66.509C79.542 66.5672 79.5856 66.5963 79.6438 66.6254C79.702 66.6545 79.7747 66.669 79.8329 66.669C79.9056 66.6835 79.9783 66.669 80.051 66.6545C80.1092 66.6399 80.1528 66.6254 80.211 66.6108C80.3128 66.5672 80.4 66.509 80.4873 66.4363C80.5164 66.4072 80.5455 66.3636 80.5745 66.3345C80.6182 66.2618 80.6473 66.1891 80.6618 66.1018L80.6036 65.7092ZM79.9492 83.1459L79.9347 83.1023L79.6438 81.1681L79.2657 78.7104L77.7824 68.9958L77.7678 68.9377C77.6515 68.2396 77.5351 67.5416 77.4188 66.829C77.2879 66.0437 77.1425 65.2584 77.0116 64.4876C76.8952 63.8332 75.7027 64.1531 75.8045 64.7203C77.5642 74.7111 79.033 84.7456 80.1964 94.8237C80.5309 97.674 80.8363 100.539 81.1272 103.389C81.1999 104.044 82.3924 103.738 82.3342 103.157C81.6653 96.4815 80.8654 89.8064 79.9492 83.1459ZM82.0724 76.5144C81.5489 74.1439 80.9672 71.788 80.3419 69.4321C80.2401 69.054 79.0767 69.4757 79.193 69.912C81.3889 78.1432 82.9741 86.5489 83.9194 95.0127C84.1811 97.3977 84.3993 99.7827 84.5592 102.168C84.5883 102.633 85.7663 102.24 85.7372 101.862C85.141 93.3403 83.9194 84.8619 82.0724 76.5144ZM82.0724 76.5144C81.5489 74.1439 80.9672 71.788 80.3419 69.4321C80.2401 69.054 79.0767 69.4757 79.193 69.912C81.3889 78.1432 82.9741 86.5489 83.9194 95.0127C84.1811 97.3977 84.3993 99.7827 84.5592 102.168C84.5883 102.633 85.7663 102.24 85.7372 101.862C85.141 93.3403 83.9194 84.8619 82.0724 76.5144ZM79.9492 83.1459L79.9347 83.1023L79.6438 81.1681L79.2657 78.7104L77.7824 68.9958L77.7678 68.9377C77.6515 68.2396 77.5351 67.5416 77.4188 66.829C77.2879 66.0437 77.1425 65.2584 77.0116 64.4876C76.8952 63.8332 75.7027 64.1531 75.8045 64.7203C77.5642 74.7111 79.033 84.7456 80.1964 94.8237C80.5309 97.674 80.8363 100.539 81.1272 103.389C81.1999 104.044 82.3924 103.738 82.3342 103.157C81.6653 96.4815 80.8654 89.8064 79.9492 83.1459ZM80.6036 65.7092C80.6036 65.651 80.5891 65.5928 80.5455 65.5638C80.5164 65.5056 80.4727 65.4765 80.4146 65.4474C80.3564 65.4183 80.2837 65.4038 80.2255 65.4038C80.1528 65.3892 80.0801 65.4038 80.0074 65.4183C79.9492 65.4329 79.9056 65.4474 79.8474 65.462C79.7456 65.5056 79.6584 65.5638 79.5711 65.6365C79.542 65.6656 79.5129 65.7092 79.4838 65.7383C79.4402 65.811 79.4111 65.8837 79.3966 65.9564L79.4548 66.3636C79.4548 66.4218 79.4693 66.4799 79.5129 66.509C79.542 66.5672 79.5856 66.5963 79.6438 66.6254C79.702 66.6545 79.7747 66.669 79.8329 66.669C79.9056 66.6835 79.9783 66.669 80.051 66.6545C80.1092 66.6399 80.1528 66.6254 80.211 66.6108C80.3128 66.5672 80.4 66.509 80.4873 66.4363C80.5164 66.4072 80.5455 66.3636 80.5745 66.3345C80.6182 66.2618 80.6473 66.1891 80.6618 66.1018L80.6036 65.7092ZM77.4188 51.3119C77.1716 51.1956 76.8516 51.2974 76.6335 51.4283C76.5171 51.501 76.4008 51.5737 76.3426 51.69C76.3135 51.7482 76.2845 51.8645 76.3717 51.9082C77.2297 52.3299 77.826 53.1734 77.9278 54.1332C77.9423 54.2205 78.1168 54.2495 78.175 54.2495C78.3204 54.2495 78.4804 54.2059 78.6113 54.1623C78.8149 54.075 79.1057 53.9296 79.0912 53.6678C78.9603 52.6644 78.3059 51.7482 77.4188 51.3119ZM78.3931 72.7042C78.3931 72.7188 78.3931 72.7188 78.4077 72.7333C78.3931 72.7333 78.3931 72.7188 78.3931 72.7042ZM56.9863 49.9594C56.8554 49.3632 56.6809 48.6506 55.9974 48.5488C55.3575 48.4615 54.9067 49.0287 54.514 49.5086C53.3215 50.992 52.5944 52.7226 51.9545 54.4968C49.6568 60.7501 48.9878 67.2798 48.5661 73.8531C48.6243 74.1294 48.5225 74.4639 48.8424 74.6384C52.3472 69.4176 55.2121 63.9059 56.55 57.7107C57.0881 55.1512 57.5971 52.5917 56.9863 49.9594ZM56.9863 49.9594C56.8554 49.3632 56.6809 48.6506 55.9974 48.5488C55.3575 48.4615 54.9067 49.0287 54.514 49.5086C53.3215 50.992 52.5944 52.7226 51.9545 54.4968C49.6568 60.7501 48.9878 67.2798 48.5661 73.8531C48.6243 74.1294 48.5225 74.4639 48.8424 74.6384C52.3472 69.4176 55.2121 63.9059 56.55 57.7107C57.0881 55.1512 57.5971 52.5917 56.9863 49.9594ZM77.4188 51.3119C77.1716 51.1956 76.8516 51.2974 76.6335 51.4283C76.5171 51.501 76.4008 51.5737 76.3426 51.69C76.3135 51.7482 76.2845 51.8645 76.3717 51.9082C77.2297 52.3299 77.826 53.1734 77.9278 54.1332C77.9423 54.2205 78.1168 54.2495 78.175 54.2495C78.3204 54.2495 78.4804 54.2059 78.6113 54.1623C78.8149 54.075 79.1057 53.9296 79.0912 53.6678C78.9603 52.6644 78.3059 51.7482 77.4188 51.3119ZM78.3931 72.7042C78.3931 72.7188 78.3931 72.7188 78.4077 72.7333C78.3931 72.7333 78.3931 72.7188 78.3931 72.7042ZM80.6036 65.7092C80.6036 65.651 80.5891 65.5928 80.5455 65.5638C80.5164 65.5056 80.4727 65.4765 80.4146 65.4474C80.3564 65.4183 80.2837 65.4038 80.2255 65.4038C80.1528 65.3892 80.0801 65.4038 80.0074 65.4183C79.9492 65.4329 79.9056 65.4474 79.8474 65.462C79.7456 65.5056 79.6584 65.5638 79.5711 65.6365C79.542 65.6656 79.5129 65.7092 79.4838 65.7383C79.4402 65.811 79.4111 65.8837 79.3966 65.9564L79.4548 66.3636C79.4548 66.4218 79.4693 66.4799 79.5129 66.509C79.542 66.5672 79.5856 66.5963 79.6438 66.6254C79.702 66.6545 79.7747 66.669 79.8329 66.669C79.9056 66.6835 79.9783 66.669 80.051 66.6545C80.1092 66.6399 80.1528 66.6254 80.211 66.6108C80.3128 66.5672 80.4 66.509 80.4873 66.4363C80.5164 66.4072 80.5455 66.3636 80.5745 66.3345C80.6182 66.2618 80.6473 66.1891 80.6618 66.1018L80.6036 65.7092ZM79.9492 83.1459L79.9347 83.1023L79.6438 81.1681L79.2657 78.7104L77.7824 68.9958L77.7678 68.9377C77.6515 68.2396 77.5351 67.5416 77.4188 66.829C77.2879 66.0437 77.1425 65.2584 77.0116 64.4876C76.8952 63.8332 75.7027 64.1531 75.8045 64.7203C77.5642 74.7111 79.033 84.7456 80.1964 94.8237C80.5309 97.674 80.8363 100.539 81.1272 103.389C81.1999 104.044 82.3924 103.738 82.3342 103.157C81.6653 96.4815 80.8654 89.8064 79.9492 83.1459ZM82.0724 76.5144C81.5489 74.1439 80.9672 71.788 80.3419 69.4321C80.2401 69.054 79.0767 69.4757 79.193 69.912C81.3889 78.1432 82.9741 86.5489 83.9194 95.0127C84.1811 97.3977 84.3993 99.7827 84.5592 102.168C84.5883 102.633 85.7663 102.24 85.7372 101.862C85.141 93.3403 83.9194 84.8619 82.0724 76.5144ZM82.0724 76.5144C81.5489 74.1439 80.9672 71.788 80.3419 69.4321C80.2401 69.054 79.0767 69.4757 79.193 69.912C81.3889 78.1432 82.9741 86.5489 83.9194 95.0127C84.1811 97.3977 84.3993 99.7827 84.5592 102.168C84.5883 102.633 85.7663 102.24 85.7372 101.862C85.141 93.3403 83.9194 84.8619 82.0724 76.5144ZM79.9492 83.1459L79.9347 83.1023L79.6438 81.1681L79.2657 78.7104L77.7824 68.9958L77.7678 68.9377C77.6515 68.2396 77.5351 67.5416 77.4188 66.829C77.2879 66.0437 77.1425 65.2584 77.0116 64.4876C76.8952 63.8332 75.7027 64.1531 75.8045 64.7203C77.5642 74.7111 79.033 84.7456 80.1964 94.8237C80.5309 97.674 80.8363 100.539 81.1272 103.389C81.1999 104.044 82.3924 103.738 82.3342 103.157C81.6653 96.4815 80.8654 89.8064 79.9492 83.1459ZM80.6036 65.7092C80.6036 65.651 80.5891 65.5928 80.5455 65.5638C80.5164 65.5056 80.4727 65.4765 80.4146 65.4474C80.3564 65.4183 80.2837 65.4038 80.2255 65.4038C80.1528 65.3892 80.0801 65.4038 80.0074 65.4183C79.9492 65.4329 79.9056 65.4474 79.8474 65.462C79.7456 65.5056 79.6584 65.5638 79.5711 65.6365C79.542 65.6656 79.5129 65.7092 79.4838 65.7383C79.4402 65.811 79.4111 65.8837 79.3966 65.9564L79.4548 66.3636C79.4548 66.4218 79.4693 66.4799 79.5129 66.509C79.542 66.5672 79.5856 66.5963 79.6438 66.6254C79.702 66.6545 79.7747 66.669 79.8329 66.669C79.9056 66.6835 79.9783 66.669 80.051 66.6545C80.1092 66.6399 80.1528 66.6254 80.211 66.6108C80.3128 66.5672 80.4 66.509 80.4873 66.4363C80.5164 66.4072 80.5455 66.3636 80.5745 66.3345C80.6182 66.2618 80.6473 66.1891 80.6618 66.1018L80.6036 65.7092ZM77.4188 51.3119C77.1716 51.1956 76.8516 51.2974 76.6335 51.4283C76.5171 51.501 76.4008 51.5737 76.3426 51.69C76.3135 51.7482 76.2845 51.8645 76.3717 51.9082C77.2297 52.3299 77.826 53.1734 77.9278 54.1332C77.9423 54.2205 78.1168 54.2495 78.175 54.2495C78.3204 54.2495 78.4804 54.2059 78.6113 54.1623C78.8149 54.075 79.1057 53.9296 79.0912 53.6678C78.9603 52.6644 78.3059 51.7482 77.4188 51.3119ZM78.3931 72.7042C78.3931 72.7188 78.3931 72.7188 78.4077 72.7333C78.3931 72.7333 78.3931 72.7188 78.3931 72.7042ZM56.9863 49.9594C56.8554 49.3632 56.6809 48.6506 55.9974 48.5488C55.3575 48.4615 54.9067 49.0287 54.514 49.5086C53.3215 50.992 52.5944 52.7226 51.9545 54.4968C49.6568 60.7501 48.9878 67.2798 48.5661 73.8531C48.6243 74.1294 48.5225 74.4639 48.8424 74.6384C52.3472 69.4176 55.2121 63.9059 56.55 57.7107C57.0881 55.1512 57.5971 52.5917 56.9863 49.9594ZM56.9863 49.9594C56.8554 49.3632 56.6809 48.6506 55.9974 48.5488C55.3575 48.4615 54.9067 49.0287 54.514 49.5086C53.3215 50.992 52.5944 52.7226 51.9545 54.4968C49.6568 60.7501 48.9878 67.2798 48.5661 73.8531C48.6243 74.1294 48.5225 74.4639 48.8424 74.6384C52.3472 69.4176 55.2121 63.9059 56.55 57.7107C57.0881 55.1512 57.5971 52.5917 56.9863 49.9594ZM77.4188 51.3119C77.1716 51.1956 76.8516 51.2974 76.6335 51.4283C76.5171 51.501 76.4008 51.5737 76.3426 51.69C76.3135 51.7482 76.2845 51.8645 76.3717 51.9082C77.2297 52.3299 77.826 53.1734 77.9278 54.1332C77.9423 54.2205 78.1168 54.2495 78.175 54.2495C78.3204 54.2495 78.4804 54.2059 78.6113 54.1623C78.8149 54.075 79.1057 53.9296 79.0912 53.6678C78.9603 52.6644 78.3059 51.7482 77.4188 51.3119ZM78.3931 72.7042C78.3931 72.7188 78.3931 72.7188 78.4077 72.7333C78.3931 72.7333 78.3931 72.7188 78.3931 72.7042ZM80.6036 65.7092C80.6036 65.651 80.5891 65.5928 80.5455 65.5638C80.5164 65.5056 80.4727 65.4765 80.4146 65.4474C80.3564 65.4183 80.2837 65.4038 80.2255 65.4038C80.1528 65.3892 80.0801 65.4038 80.0074 65.4183C79.9492 65.4329 79.9056 65.4474 79.8474 65.462C79.7456 65.5056 79.6584 65.5638 79.5711 65.6365C79.542 65.6656 79.5129 65.7092 79.4838 65.7383C79.4402 65.811 79.4111 65.8837 79.3966 65.9564L79.4548 66.3636C79.4548 66.4218 79.4693 66.4799 79.5129 66.509C79.542 66.5672 79.5856 66.5963 79.6438 66.6254C79.702 66.6545 79.7747 66.669 79.8329 66.669C79.9056 66.6835 79.9783 66.669 80.051 66.6545C80.1092 66.6399 80.1528 66.6254 80.211 66.6108C80.3128 66.5672 80.4 66.509 80.4873 66.4363C80.5164 66.4072 80.5455 66.3636 80.5745 66.3345C80.6182 66.2618 80.6473 66.1891 80.6618 66.1018L80.6036 65.7092ZM79.9492 83.1459L79.9347 83.1023L79.6438 81.1681L79.2657 78.7104L77.7824 68.9958L77.7678 68.9377C77.6515 68.2396 77.5351 67.5416 77.4188 66.829C77.2879 66.0437 77.1425 65.2584 77.0116 64.4876C76.8952 63.8332 75.7027 64.1531 75.8045 64.7203C77.5642 74.7111 79.033 84.7456 80.1964 94.8237C80.5309 97.674 80.8363 100.539 81.1272 103.389C81.1999 104.044 82.3924 103.738 82.3342 103.157C81.6653 96.4815 80.8654 89.8064 79.9492 83.1459ZM82.0724 76.5144C81.5489 74.1439 80.9672 71.788 80.3419 69.4321C80.2401 69.054 79.0767 69.4757 79.193 69.912C81.3889 78.1432 82.9741 86.5489 83.9194 95.0127C84.1811 97.3977 84.3993 99.7827 84.5592 102.168C84.5883 102.633 85.7663 102.24 85.7372 101.862C85.141 93.3403 83.9194 84.8619 82.0724 76.5144ZM82.0724 76.5144C81.5489 74.1439 80.9672 71.788 80.3419 69.4321C80.2401 69.054 79.0767 69.4757 79.193 69.912C81.3889 78.1432 82.9741 86.5489 83.9194 95.0127C84.1811 97.3977 84.3993 99.7827 84.5592 102.168C84.5883 102.633 85.7663 102.24 85.7372 101.862C85.141 93.3403 83.9194 84.8619 82.0724 76.5144ZM79.9492 83.1459L79.9347 83.1023L79.6438 81.1681L79.2657 78.7104L77.7824 68.9958L77.7678 68.9377C77.6515 68.2396 77.5351 67.5416 77.4188 66.829C77.2879 66.0437 77.1425 65.2584 77.0116 64.4876C76.8952 63.8332 75.7027 64.1531 75.8045 64.7203C77.5642 74.7111 79.033 84.7456 80.1964 94.8237C80.5309 97.674 80.8363 100.539 81.1272 103.389C81.1999 104.044 82.3924 103.738 82.3342 103.157C81.6653 96.4815 80.8654 89.8064 79.9492 83.1459ZM80.6036 65.7092C80.6036 65.651 80.5891 65.5928 80.5455 65.5638C80.5164 65.5056 80.4727 65.4765 80.4146 65.4474C80.3564 65.4183 80.2837 65.4038 80.2255 65.4038C80.1528 65.3892 80.0801 65.4038 80.0074 65.4183C79.9492 65.4329 79.9056 65.4474 79.8474 65.462C79.7456 65.5056 79.6584 65.5638 79.5711 65.6365C79.542 65.6656 79.5129 65.7092 79.4838 65.7383C79.4402 65.811 79.4111 65.8837 79.3966 65.9564L79.4548 66.3636C79.4548 66.4218 79.4693 66.4799 79.5129 66.509C79.542 66.5672 79.5856 66.5963 79.6438 66.6254C79.702 66.6545 79.7747 66.669 79.8329 66.669C79.9056 66.6835 79.9783 66.669 80.051 66.6545C80.1092 66.6399 80.1528 66.6254 80.211 66.6108C80.3128 66.5672 80.4 66.509 80.4873 66.4363C80.5164 66.4072 80.5455 66.3636 80.5745 66.3345C80.6182 66.2618 80.6473 66.1891 80.6618 66.1018L80.6036 65.7092ZM77.4188 51.3119C77.1716 51.1956 76.8516 51.2974 76.6335 51.4283C76.5171 51.501 76.4008 51.5737 76.3426 51.69C76.3135 51.7482 76.2845 51.8645 76.3717 51.9082C77.2297 52.3299 77.826 53.1734 77.9278 54.1332C77.9423 54.2205 78.1168 54.2495 78.175 54.2495C78.3204 54.2495 78.4804 54.2059 78.6113 54.1623C78.8149 54.075 79.1057 53.9296 79.0912 53.6678C78.9603 52.6644 78.3059 51.7482 77.4188 51.3119ZM78.3931 72.7042C78.3931 72.7188 78.3931 72.7188 78.4077 72.7333C78.3931 72.7333 78.3931 72.7188 78.3931 72.7042ZM56.9863 49.9594C56.8554 49.3632 56.6809 48.6506 55.9974 48.5488C55.3575 48.4615 54.9067 49.0287 54.514 49.5086C53.3215 50.992 52.5944 52.7226 51.9545 54.4968C49.6568 60.7501 48.9878 67.2798 48.5661 73.8531C48.6243 74.1294 48.5225 74.4639 48.8424 74.6384C52.3472 69.4176 55.2121 63.9059 56.55 57.7107C57.0881 55.1512 57.5971 52.5917 56.9863 49.9594ZM56.9863 49.9594C56.8554 49.3632 56.6809 48.6506 55.9974 48.5488C55.3575 48.4615 54.9067 49.0287 54.514 49.5086C53.3215 50.992 52.5944 52.7226 51.9545 54.4968C49.6568 60.7501 48.9878 67.2798 48.5661 73.8531C48.6243 74.1294 48.5225 74.4639 48.8424 74.6384C52.3472 69.4176 55.2121 63.9059 56.55 57.7107C57.0881 55.1512 57.5971 52.5917 56.9863 49.9594ZM78.3931 72.7042C78.3931 72.7188 78.3931 72.7188 78.4077 72.7333C78.3931 72.7333 78.3931 72.7188 78.3931 72.7042ZM80.6036 65.7092C80.6036 65.651 80.5891 65.5928 80.5455 65.5638C80.5164 65.5056 80.4727 65.4765 80.4146 65.4474C80.3564 65.4183 80.2837 65.4038 80.2255 65.4038C80.1528 65.3892 80.0801 65.4038 80.0074 65.4183C79.9492 65.4329 79.9056 65.4474 79.8474 65.462C79.7456 65.5056 79.6584 65.5638 79.5711 65.6365C79.542 65.6656 79.5129 65.7092 79.4838 65.7383C79.4402 65.811 79.4111 65.8837 79.3966 65.9564L79.4548 66.3636C79.4548 66.4218 79.4693 66.4799 79.5129 66.509C79.542 66.5672 79.5856 66.5963 79.6438 66.6254C79.702 66.6545 79.7747 66.669 79.8329 66.669C79.9056 66.6835 79.9783 66.669 80.051 66.6545C80.1092 66.6399 80.1528 66.6254 80.211 66.6108C80.3128 66.5672 80.4 66.509 80.4873 66.4363C80.5164 66.4072 80.5455 66.3636 80.5745 66.3345C80.6182 66.2618 80.6473 66.1891 80.6618 66.1018L80.6036 65.7092ZM79.9492 83.1459L79.9347 83.1023L79.6438 81.1681L79.2657 78.7104L77.7824 68.9958L77.7678 68.9377C77.6515 68.2396 77.5351 67.5416 77.4188 66.829C77.2879 66.0437 77.1425 65.2584 77.0116 64.4876C76.8952 63.8332 75.7027 64.1531 75.8045 64.7203C77.5642 74.7111 79.033 84.7456 80.1964 94.8237C80.5309 97.674 80.8363 100.539 81.1272 103.389C81.1999 104.044 82.3924 103.738 82.3342 103.157C81.6653 96.4815 80.8654 89.8064 79.9492 83.1459ZM82.0724 76.5144C81.5489 74.1439 80.9672 71.788 80.3419 69.4321C80.2401 69.054 79.0767 69.4757 79.193 69.912C81.3889 78.1432 82.9741 86.5489 83.9194 95.0127C84.1811 97.3977 84.3993 99.7827 84.5592 102.168C84.5883 102.633 85.7663 102.24 85.7372 101.862C85.141 93.3403 83.9194 84.8619 82.0724 76.5144ZM82.0724 76.5144C81.5489 74.1439 80.9672 71.788 80.3419 69.4321C80.2401 69.054 79.0767 69.4757 79.193 69.912C81.3889 78.1432 82.9741 86.5489 83.9194 95.0127C84.1811 97.3977 84.3993 99.7827 84.5592 102.168C84.5883 102.633 85.7663 102.24 85.7372 101.862C85.141 93.3403 83.9194 84.8619 82.0724 76.5144ZM79.9492 83.1459L79.9347 83.1023L79.6438 81.1681L79.2657 78.7104L77.7824 68.9958L77.7678 68.9377C77.6515 68.2396 77.5351 67.5416 77.4188 66.829C77.2879 66.0437 77.1425 65.2584 77.0116 64.4876C76.8952 63.8332 75.7027 64.1531 75.8045 64.7203C77.5642 74.7111 79.033 84.7456 80.1964 94.8237C80.5309 97.674 80.8363 100.539 81.1272 103.389C81.1999 104.044 82.3924 103.738 82.3342 103.157C81.6653 96.4815 80.8654 89.8064 79.9492 83.1459ZM80.6036 65.7092C80.6036 65.651 80.5891 65.5928 80.5455 65.5638C80.5164 65.5056 80.4727 65.4765 80.4146 65.4474C80.3564 65.4183 80.2837 65.4038 80.2255 65.4038C80.1528 65.3892 80.0801 65.4038 80.0074 65.4183C79.9492 65.4329 79.9056 65.4474 79.8474 65.462C79.7456 65.5056 79.6584 65.5638 79.5711 65.6365C79.542 65.6656 79.5129 65.7092 79.4838 65.7383C79.4402 65.811 79.4111 65.8837 79.3966 65.9564L79.4548 66.3636C79.4548 66.4218 79.4693 66.4799 79.5129 66.509C79.542 66.5672 79.5856 66.5963 79.6438 66.6254C79.702 66.6545 79.7747 66.669 79.8329 66.669C79.9056 66.6835 79.9783 66.669 80.051 66.6545C80.1092 66.6399 80.1528 66.6254 80.211 66.6108C80.3128 66.5672 80.4 66.509 80.4873 66.4363C80.5164 66.4072 80.5455 66.3636 80.5745 66.3345C80.6182 66.2618 80.6473 66.1891 80.6618 66.1018L80.6036 65.7092ZM78.3931 72.7042C78.3931 72.7188 78.3931 72.7188 78.4077 72.7333C78.3931 72.7333 78.3931 72.7188 78.3931 72.7042ZM56.9863 49.9594C56.8554 49.3632 56.6809 48.6506 55.9974 48.5488C55.3575 48.4615 54.9067 49.0287 54.514 49.5086C53.3215 50.992 52.5944 52.7226 51.9545 54.4968C49.6568 60.7501 48.9878 67.2798 48.5661 73.8531C48.6243 74.1294 48.5225 74.4639 48.8424 74.6384C52.3472 69.4176 55.2121 63.9059 56.55 57.7107C57.0881 55.1512 57.5971 52.5917 56.9863 49.9594Z" fill="#4A90E2"/>
</svg>
