<svg width="702" height="149" viewBox="0 0 702 149" fill="none" xmlns="http://www.w3.org/2000/svg">
<g filter="url(#filter0_d_579_14560)">
<path opacity="0.8" d="M110.905 9.00195H76.3093C66.29 9.00195 58.1677 17.1242 58.1677 27.1435C58.1677 27.3439 58.3302 27.5064 58.5306 27.5064H110.905V9.00195Z" fill="#4B91E1"/>
<path d="M110.905 27.5039H163.643V8.9995H110.905V27.5039Z" fill="#333333"/>
<path opacity="0.8" d="M163.643 27.5039H216.38V8.9995H163.643V27.5039Z" fill="#4B91E1"/>
<path d="M216.381 27.5039H269.118V8.9995H216.381V27.5039Z" fill="#333333"/>
<path opacity="0.8" d="M269.118 27.5039H321.856V8.9995H269.118V27.5039Z" fill="#4B91E1"/>
<path d="M321.856 27.5039H380.145V8.9995H321.856V27.5039Z" fill="#333333"/>
<path opacity="0.8" d="M591.095 9.00195H625.691C635.71 9.00195 643.832 17.1242 643.832 27.1435C643.832 27.3439 643.67 27.5064 643.469 27.5064H591.095V9.00195Z" fill="#4B91E1"/>
<path d="M591.095 27.5039H538.357V8.9995H591.095V27.5039Z" fill="#333333"/>
<path opacity="0.8" d="M538.357 27.5039H485.619V8.9995H538.357V27.5039Z" fill="#4B91E1"/>
<path d="M485.619 27.5039H432.882V8.9995H485.619V27.5039Z" fill="#333333"/>
<path opacity="0.8" d="M432.882 27.5039H380.144V8.9995H432.882V27.5039Z" fill="#4B91E1"/>
<rect x="57.8" y="27.5059" width="586.4" height="0.8" rx="0.4" fill="#9E9E9E"/>
<path d="M57.688 28.9504C57.99 28.5453 58.4656 28.3066 58.9708 28.3066H110.905L80.3732 79.1937H20.2339L57.688 28.9504Z" fill="#4B91E1"/>
<path d="M110.905 28.3066H163.643L140.512 79.1937H80.373L110.905 28.3066Z" fill="#333333"/>
<path d="M163.643 28.3066H216.381L200.652 79.1937H140.512L163.643 28.3066Z" fill="#4B91E1"/>
<path d="M216.38 28.3066H269.118L260.791 79.1937H200.189L216.38 28.3066Z" fill="#333333"/>
<path d="M269.118 28.3066H321.856L320.93 79.1937H260.791L269.118 28.3066Z" fill="#4B91E1"/>
<path d="M321.855 28.3066H351.462V79.1937H320.93L321.855 28.3066Z" fill="#333333"/>
<path d="M644.312 28.9504C644.01 28.5453 643.535 28.3066 643.029 28.3066H591.095L621.627 79.1937H681.766L644.312 28.9504Z" fill="#4B91E1"/>
<path d="M591.095 28.3066H538.357L561.488 79.1937H621.627L591.095 28.3066Z" fill="#333333"/>
<path d="M538.357 28.3066H485.62L501.348 79.1937H561.488L538.357 28.3066Z" fill="#4B91E1"/>
<path d="M485.62 28.3066H432.882L441.209 79.1937H501.811L485.62 28.3066Z" fill="#333333"/>
<path d="M432.882 28.3066H380.145L381.07 79.1937H441.209L432.882 28.3066Z" fill="#4B91E1"/>
<path d="M380.145 28.3066H351.463V79.1937H381.07L380.145 28.3066Z" fill="#333333"/>
<rect x="20.2336" y="79.1934" width="661.533" height="0.8" fill="#9E9E9E"/>
<path d="M80.373 79.9922H140.512V86.9313C140.512 103.538 127.05 117.001 110.443 117.001C93.8357 117.001 80.373 103.538 80.373 86.9313V79.9922Z" fill="#333333"/>
<path d="M200.652 79.9922H260.791V86.9313C260.791 103.538 247.329 117.001 230.722 117.001C214.115 117.001 200.652 103.538 200.652 86.9313V79.9922Z" fill="#333333"/>
<path d="M320.931 79.9922H381.07V86.9313C381.07 103.538 367.607 117.001 351 117.001C334.393 117.001 320.931 103.538 320.931 86.9313V79.9922Z" fill="#333333"/>
<path d="M441.209 79.9922H501.348V86.9313C501.348 103.538 487.886 117.001 471.279 117.001C454.672 117.001 441.209 103.538 441.209 86.9313V79.9922Z" fill="#333333"/>
<path d="M561.488 79.9922H621.627V86.9313C621.627 103.538 608.164 117.001 591.557 117.001C574.95 117.001 561.488 103.538 561.488 86.9313V79.9922Z" fill="#333333"/>
<path d="M20.2339 79.9922H80.3732V86.9313C80.3732 103.538 66.9105 117.001 50.3035 117.001C33.6965 117.001 20.2339 103.538 20.2339 86.9313V79.9922Z" fill="#4B91E1"/>
<path d="M140.512 79.9922H200.651V86.9313C200.651 103.538 187.189 117.001 170.582 117.001C153.975 117.001 140.512 103.538 140.512 86.9313V79.9922Z" fill="#4B91E1"/>
<path d="M260.791 79.9922H320.93V86.9313C320.93 103.538 307.468 117.001 290.861 117.001C274.254 117.001 260.791 103.538 260.791 86.9313V79.9922Z" fill="#4B91E1"/>
<path d="M381.07 79.9922H441.209V86.9313C441.209 103.538 427.746 117.001 411.139 117.001C394.532 117.001 381.07 103.538 381.07 86.9313V79.9922Z" fill="#4B91E1"/>
<path d="M501.348 79.9922H561.487V86.9313C561.487 103.538 548.025 117.001 531.418 117.001C514.811 117.001 501.348 103.538 501.348 86.9313V79.9922Z" fill="#4B91E1"/>
<path d="M621.627 79.9922H681.766V86.9313C681.766 103.538 668.304 117.001 651.697 117.001C635.09 117.001 621.627 103.538 621.627 86.9313V79.9922Z" fill="#4B91E1"/>
</g>
<defs>
<filter id="filter0_d_579_14560" x="0.233643" y="0.2" width="701.533" height="148.002" filterUnits="userSpaceOnUse" color-interpolation-filters="sRGB">
<feFlood flood-opacity="0" result="BackgroundImageFix"/>
<feColorMatrix in="SourceAlpha" type="matrix" values="0 0 0 0 0 0 0 0 0 0 0 0 0 0 0 0 0 0 127 0" result="hardAlpha"/>
<feOffset dy="11.2"/>
<feGaussianBlur stdDeviation="10"/>
<feComposite in2="hardAlpha" operator="out"/>
<feColorMatrix type="matrix" values="0 0 0 0 0 0 0 0 0 0 0 0 0 0 0 0 0 0 0.34 0"/>
<feBlend mode="normal" in2="BackgroundImageFix" result="effect1_dropShadow_579_14560"/>
<feBlend mode="normal" in="SourceGraphic" in2="effect1_dropShadow_579_14560" result="shape"/>
</filter>
</defs>
</svg>
