<svg width="25" height="25" viewBox="0 0 25 25" fill="none" xmlns="http://www.w3.org/2000/svg">
<path d="M13.8064 7.69727C13.2606 7.47013 12.6671 7.38988 12.0837 7.46191L11.8337 7.50195C11.2544 7.6178 10.716 7.88243 10.2703 8.26855L10.0857 8.44141C9.66747 8.86157 9.36522 9.38255 9.20776 9.95312L9.14917 10.2012C9.0171 10.8683 9.08448 11.5602 9.34351 12.1885L9.44897 12.4189C9.71407 12.9478 10.1116 13.3994 10.6033 13.7295L10.8181 13.8633C11.3297 14.1542 11.9086 14.3064 12.4988 14.3066C13.4037 14.3056 14.2729 13.9457 14.9138 13.3018L15.03 13.1777C15.5977 12.5479 15.9155 11.727 15.9167 10.8721L15.907 10.6182C15.8697 10.1115 15.7214 9.61951 15.4724 9.17773L15.3396 8.96191C15.0107 8.46744 14.5612 8.06858 14.0359 7.80273L13.8064 7.69727ZM21.5779 11.1143C21.5199 12.3285 21.0349 13.5796 20.3826 14.752C19.6806 16.0133 18.7465 17.2506 17.8035 18.3496C15.9169 20.5482 13.9338 22.2647 13.5251 22.6133L13.5242 22.6143L12.9851 23.0713L12.4998 23.4844L12.0144 23.0713L11.4763 22.6143L11.4753 22.6133C11.0669 22.2649 9.0838 20.5484 7.19702 18.3496C6.25394 17.2506 5.31987 16.0133 4.61792 14.752C3.92203 13.5014 3.41675 12.1615 3.41675 10.8721V10.8711L3.42847 10.4189C3.54209 8.16645 4.483 6.02906 6.07886 4.42578L6.40503 4.11426C8.07021 2.59923 10.2403 1.75261 12.4988 1.75H12.5007L12.9509 1.76172C15.1961 1.87585 17.3255 2.82222 18.9216 4.42578L19.2322 4.75293C20.74 6.42564 21.5812 8.60499 21.5837 10.8711V10.8721L21.5779 11.1143Z" stroke="black" stroke-width="1.5"/>
<path d="M12.5002 8.75C14.019 8.75 15.2502 9.98122 15.2502 11.5C15.2502 13.0188 14.019 14.25 12.5002 14.25C10.9815 14.25 9.75024 13.0188 9.75024 11.5C9.75024 9.98122 10.9815 8.75 12.5002 8.75Z" fill="black" stroke="black" stroke-width="1.5"/>
</svg>
