<svg width="61" height="61" viewBox="0 0 61 61" fill="none" xmlns="http://www.w3.org/2000/svg">
<rect x="1" y="2" width="58" height="58" rx="29" fill="white"/>
<rect x="1" y="2" width="58" height="58" rx="29" stroke="#FFAE42" stroke-width="2"/>
<g clip-path="url(#clip0_530_31033)">
<path d="M25.8121 19H34.188C34.4664 19 34.68 19 34.8672 19.018C36.1967 19.1488 37.2851 19.948 37.7471 21.0244H22.2529C22.7149 19.948 23.8033 19.1488 25.1329 19.018C25.3177 19 25.5313 19 25.8121 19ZM23.1721 22.2676C21.5041 22.2676 20.1362 23.2755 19.6802 24.6123L19.6514 24.6963C20.129 24.5523 20.627 24.4563 21.1297 24.3927C22.4257 24.2259 24.0649 24.2259 25.9681 24.2259H34.2384C36.1415 24.2259 37.7795 24.2259 39.0767 24.3927C39.5807 24.4575 40.0775 24.5511 40.5551 24.6963L40.5275 24.6123C40.0715 23.2755 38.7035 22.2676 37.0343 22.2676H23.1721Z" fill="#FFAE42"/>
<path fill-rule="evenodd" clip-rule="evenodd" d="M26.0067 25.6504H33.9938C38.0425 25.6504 40.0681 25.6504 41.2057 26.8348C42.3433 28.0192 42.0745 29.8479 41.5393 33.5067L41.0329 36.977C40.6129 39.8462 40.4029 41.2814 39.3265 42.1406C38.2501 42.9998 36.6625 42.9998 33.4862 42.9998H26.5143C23.3391 42.9998 21.7503 42.9998 20.674 42.1406C19.5976 41.2814 19.3876 39.8462 18.9676 36.977L18.4612 33.5079C17.9248 29.8479 17.6572 28.0192 18.7948 26.8348C19.9324 25.6504 21.9579 25.6504 26.0067 25.6504ZM25.2003 38.1998C25.2003 37.703 25.6479 37.2998 26.1999 37.2998H33.8006C34.3526 37.2998 34.8002 37.703 34.8002 38.1998C34.8002 38.6966 34.3526 39.0998 33.8006 39.0998H26.1999C25.6479 39.0998 25.2003 38.6966 25.2003 38.1998Z" fill="#FFAE42"/>
</g>
<rect x="40" y="1" width="20" height="20" rx="10" fill="#FFAE42"/>
<rect x="40" y="1" width="20" height="20" rx="10" stroke="white" stroke-width="2"/>
<path d="M50.7691 5.1296L55.881 13.9834C55.959 14.1184 56 14.2715 56 14.4274C56 14.5833 55.959 14.7365 55.881 14.8715C55.8031 15.0065 55.691 15.1186 55.556 15.1966C55.421 15.2745 55.2678 15.3155 55.1119 15.3155H44.8881C44.7322 15.3155 44.579 15.2745 44.444 15.1966C44.309 15.1186 44.1969 15.0065 44.119 14.8715C44.041 14.7365 44 14.5833 44 14.4274C44 14.2715 44.041 14.1184 44.119 13.9834L49.2309 5.1296C49.5725 4.53753 50.4269 4.53753 50.7691 5.1296ZM50 6.16572L45.4008 14.1314H54.5992L50 6.16572ZM50 12.1468C50.157 12.1468 50.3076 12.2092 50.4187 12.3202C50.5297 12.4312 50.5921 12.5818 50.5921 12.7389C50.5921 12.8959 50.5297 13.0465 50.4187 13.1575C50.3076 13.2686 50.157 13.3309 50 13.3309C49.843 13.3309 49.6924 13.2686 49.5813 13.1575C49.4703 13.0465 49.4079 12.8959 49.4079 12.7389C49.4079 12.5818 49.4703 12.4312 49.5813 12.3202C49.6924 12.2092 49.843 12.1468 50 12.1468ZM50 8.00231C50.157 8.00231 50.3076 8.06469 50.4187 8.17573C50.5297 8.28676 50.5921 8.43736 50.5921 8.59438V10.9627C50.5921 11.1197 50.5297 11.2703 50.4187 11.3813C50.3076 11.4923 50.157 11.5547 50 11.5547C49.843 11.5547 49.6924 11.4923 49.5813 11.3813C49.4703 11.2703 49.4079 11.1197 49.4079 10.9627V8.59438C49.4079 8.43736 49.4703 8.28676 49.5813 8.17573C49.6924 8.06469 49.843 8.00231 50 8.00231Z" fill="white"/>
<defs>
<clipPath id="clip0_530_31033">
<rect width="24" height="24" fill="white" transform="translate(18 19)"/>
</clipPath>
</defs>
</svg>
