<svg width="60" height="60" viewBox="0 0 60 60" fill="none" xmlns="http://www.w3.org/2000/svg">
<rect x="1" y="1" width="58" height="58" rx="29" fill="white"/>
<rect x="1" y="1" width="58" height="58" rx="29" stroke="#D9D9D9" stroke-width="2"/>
<g clip-path="url(#clip0_530_30995)">
<path d="M25.8121 18H34.188C34.4664 18 34.68 18 34.8672 18.018C36.1967 18.1488 37.2851 18.948 37.7471 20.0244H22.2529C22.7149 18.948 23.8033 18.1488 25.1329 18.018C25.3177 18 25.5313 18 25.8121 18ZM23.1721 21.2676C21.5041 21.2676 20.1362 22.2755 19.6802 23.6123L19.6514 23.6963C20.129 23.5523 20.627 23.4563 21.1297 23.3927C22.4257 23.2259 24.0649 23.2259 25.9681 23.2259H34.2384C36.1415 23.2259 37.7795 23.2259 39.0767 23.3927C39.5807 23.4575 40.0775 23.5511 40.5551 23.6963L40.5275 23.6123C40.0715 22.2755 38.7035 21.2676 37.0343 21.2676H23.1721Z" fill="#D9D9D9"/>
<path fill-rule="evenodd" clip-rule="evenodd" d="M26.0067 24.6504H33.9938C38.0425 24.6504 40.0681 24.6504 41.2057 25.8348C42.3433 27.0192 42.0745 28.8479 41.5393 32.5067L41.0329 35.977C40.6129 38.8462 40.4029 40.2814 39.3265 41.1406C38.2501 41.9998 36.6625 41.9998 33.4862 41.9998H26.5143C23.3391 41.9998 21.7503 41.9998 20.674 41.1406C19.5976 40.2814 19.3876 38.8462 18.9676 35.977L18.4612 32.5079C17.9248 28.8479 17.6572 27.0192 18.7948 25.8348C19.9324 24.6504 21.9579 24.6504 26.0067 24.6504ZM25.2003 37.1998C25.2003 36.703 25.6479 36.2998 26.1999 36.2998H33.8006C34.3526 36.2998 34.8002 36.703 34.8002 37.1998C34.8002 37.6966 34.3526 38.0998 33.8006 38.0998H26.1999C25.6479 38.0998 25.2003 37.6966 25.2003 37.1998Z" fill="#D9D9D9"/>
</g>
<defs>
<clipPath id="clip0_530_30995">
<rect width="24" height="24" fill="white" transform="translate(18 18)"/>
</clipPath>
</defs>
</svg>
